<?xml version="1.0" standalone="no"?>
<!DOCTYPE svg PUBLIC "-//W3C//DTD SVG 1.1//EN" "http://www.w3.org/Graphics/SVG/1.1/DTD/svg11.dtd" >
<svg xmlns="http://www.w3.org/2000/svg" xmlns:xlink="http://www.w3.org/1999/xlink" version="1.1">
<metadata>
Created by FontForge 20170731 at Tue Jan  5 20:05:19 2021
 By Aleksey,,,
</metadata>
<defs>
<font id="icomoon" horiz-adv-x="1024" >
  <font-face 
    font-family="icomoon"
    font-weight="400"
    font-stretch="normal"
    units-per-em="1024"
    panose-1="0 0 0 0 0 0 0 0 0 0"
    ascent="960"
    descent="-64"
    bbox="-7 -71 2768 967"
    underline-thickness="0"
    underline-position="0"
    unicode-range="U+0001-FFFD"
  />
<missing-glyph 
 />
    <glyph glyph-name=".notdef" unicode="&#xfffd;" 
 />
    <glyph glyph-name="glyph1" horiz-adv-x="0" 
d="M0 0v0v0v0z" />
    <glyph glyph-name="glyph1" horiz-adv-x="0" 
d="M0 0v0v0v0z" />
    <glyph glyph-name="nonmarkingreturn" horiz-adv-x="341" 
 />
    <glyph glyph-name="uni0001" horiz-adv-x="0" 
d="M0 0v0v0v0z" />
    <glyph glyph-name="space" unicode=" " horiz-adv-x="512" 
d="M0 0v0v0v0z" />
    <glyph glyph-name="uniE600" unicode="&#xe600;" horiz-adv-x="1452" 
d="M380 107l-369 -104l309 460l184 67l106 -67l-42 -66l-74 46l-123 -46l-175 -260l191 54l342 -167l334 167l199 -55l-175 261l-134 45l-59 -44l-47 64l92 68l198 -67l309 -459l-375 103l-342 -171l-349 171v0zM693 192q0 1 -7.5 10.5t-20.5 27.5v0l45 33q2 3 4.5 6.5
t5.5 7.5v0l4 -3l4 3q3 -4 5.5 -7.5t5.5 -6.5v0l44 -33q-12 -17 -20 -27l-8 -10v0l-31 -40l-31 39v0zM533 434q-35 63 -61 128.5t-26 126.5v0q0 57 22 107t60 86v0q38 36 88.5 56.5t107.5 20.5v0q58 -1 109 -22q50 -22 88 -60t60 -89q22 -50 22 -108v0q-1 -58 -27 -121.5
t-61 -125.5v0q-34 -62 -71 -116t-61 -87v0v0l-59 44l-59 -44q-24 33 -60.5 87t-71.5 117v0v0zM525 689q-1 -40 21.5 -99t55.5 -118v0q31 -57 65 -107.5t57 -82.5v0q24 33 57.5 83t65.5 107v0q33 58 55.5 115.5t21.5 92.5v0q0 41 -16 78q-15 36 -42.5 63t-63.5 43t-78 16v0
q-84 -1 -141.5 -55t-57.5 -136v0v0zM629 662q0 42 30 72t72 30t72 -30t30 -72t-30 -72t-72 -30t-72 30t-30 72z" />
    <glyph glyph-name="uniE601" unicode="&#xe601;" horiz-adv-x="574" 
d="M8 780l378 -339l-378 -339l96 -85l377 339l92 85l-92 85l-377 339z" />
    <glyph glyph-name="uniE602" unicode="&#xe602;" horiz-adv-x="1404" 
d="M1184 850l-480 -534l-484 534l-115 -135l479 -534l120 -130l115 130l485 534z" />
    <glyph glyph-name="uniE603" unicode="&#xe603;" 
d="M1023 22l-85 -85l-937 937l85 85l937 -937v0zM938 959l85 -85l-937 -937l-85 85l937 937v0z" />
    <glyph glyph-name="uniE604" unicode="&#xe604;" horiz-adv-x="1648" 
d="M1640 552l-144 238h-343v163h-1149v-837h212q-1 -3 -1 -6.5v-6.5q0 -66 46 -112t112 -46q65 0 111 46.5t46 111.5v6.5v6.5h672q0 -3 -0.5 -6.5t0.5 -6.5q0 -66 46 -112t111 -46q66 0 112 46.5t46 111.5v6.5t-1 6.5h124v436v0zM373 32q-29 0 -50 21t-21 50q1 7 2 12t5 14
l2 3q11 14 29 25t33 10q14 1 32 -10t29 -25l3 -3q4 -9 5 -14t1 -12q0 -29 -20.5 -50t-49.5 -21v0zM487 203q-20 20 -48.5 35.5t-65.5 16.5q-38 -1 -66.5 -16.5t-48.5 -35.5h-166v662h974v-118v0v-544h-579v0zM1359 32q-29 0 -49.5 20.5t-20.5 50.5q0 7 1 12t5 14l3 3
q11 14 29 25t32 10q15 1 33 -10t29 -25l2 -3q4 -9 5 -14t2 -12q0 -29 -21 -50t-50 -21v0zM1553 203h-79q-20 20 -48.5 35.5t-66.5 16.5q-37 -1 -65.5 -16.5t-48.5 -35.5h-92v500h294l106 -175v-325v0z" />
    <glyph glyph-name="uniE605" unicode="&#xe605;" horiz-adv-x="733" 
d="M639 541v147q0 56 -22 106q-21 49 -58 86t-86 59q-50 21 -106 21q-57 0 -106 -21q-50 -22 -87 -59t-58 -86q-21 -50 -21 -106v-147h-95v-605h733v605h-94zM217 688q0 62 44 106t106 44t105.5 -44t43.5 -106v-147h-299v147v0z" />
    <glyph glyph-name="uniE606" unicode="&#xe606;" horiz-adv-x="1758" 
d="M179 948l860 -860l-154 -154l-860 860l154 154v0zM1747 794l-861 -860l-154 154l860 860z" />
    <glyph glyph-name="uniE607" unicode="&#xe607;" horiz-adv-x="522" 
d="M521 878q-1 -1 -2 -2.5t-3 -2.5q-16 -17 -32.5 -33.5t-33.5 -32.5v0q-1 -1 -1 -1.5t-1 -0.5q-1 -2 -1 -3.5t2 -3.5q12 -21 20 -44t11 -47q5 -50 -7.5 -94.5t-44.5 -83.5q-26 -34 -60.5 -55t-76.5 -30q-19 -5 -38.5 -5.5t-39.5 1.5q-32 4 -60.5 15.5t-54.5 30.5
q-37 28 -60.5 64.5t-32.5 81.5q-4 17 -4.5 34t0.5 34q4 39 19 73.5t42 64.5q25 29 56 47.5t68 26.5q19 4 37 5.5t37 -0.5q27 -2 52.5 -10t48.5 -21q3 -2 4.5 -1.5t3.5 2.5q16 17 32.5 33.5t33.5 32.5l2.5 2.5t2.5 3.5l40.5 -40.5l40.5 -40.5v0zM371 674q2 58 -37 96t-90 39
q-58 2 -96 -38.5t-38 -92.5q0 -53 38.5 -92t92.5 -38q52 -1 90.5 36.5t39.5 89.5v0zM472 140q1 -48 0.5 -97t-0.5 -97v-9h-115v8v102v102q0 26 -9.5 49.5t-29.5 41.5q-13 12 -28.5 19.5t-33.5 9.5q-23 4 -44.5 -2t-40.5 -20q-18 -14 -29.5 -33.5t-14.5 -42.5
q-2 -11 -2.5 -22t-0.5 -23v-90v-90v-9h-115v8q0 55 -0.5 110t0.5 110q1 29 9.5 56.5t24.5 52.5q25 42 61.5 68.5t84.5 37.5q14 4 30 5.5t31 0.5q47 -2 88 -21t73 -54q23 -26 37.5 -56t19.5 -65q2 -12 3 -24.5t1 -25.5zM450 807v0l-1.5 -1.5l-0.5 -0.5l0.5 0.5z" />
    <glyph glyph-name="uniE608" unicode="&#xe608;" horiz-adv-x="1609" 
d="M11 952v-1011h1594v1011h-1594v0zM1519 27h-1422v840h1422v-840zM260 745h914v-85h-914v85zM260 624h756v-86h-756v86v0zM576 436q-21 0 -40.5 -5.5t-36.5 -14.5q-17 9 -36.5 14.5t-40.5 5.5q-65 0 -110.5 -45.5t-45.5 -110.5q0 -64 45.5 -110t110.5 -46v0v0
q21 0 40.5 5.5t36.5 15.5q17 -10 36.5 -15.5t40.5 -5.5q65 0 110.5 46t45.5 110q0 65 -45.5 110.5t-110.5 45.5v0z" />
    <glyph glyph-name="uniE609" unicode="&#xe609;" horiz-adv-x="1025" 
d="M1024 152q2 -13 -2 -23.5t-13 -20.5l-144 -143q-5 -5 -11.5 -9.5t-14.5 -8.5t-15.5 -6.5t-15.5 -3.5h-2h-4q-3 -1 -6.5 -1h-7.5q-11 0 -27.5 2t-39.5 5q-23 4 -51 12.5t-62 22.5q-33 14 -71 34.5t-80 48.5q-43 28 -88 66t-92 86q-38 37 -69.5 73t-56.5 70t-45 65.5
t-35 60.5t-26.5 55.5t-19.5 50.5q-7 23 -12.5 43.5t-8.5 37.5q-2 17 -3 30.5t-1 22.5q1 10 1 15.5v6.5q1 8 3.5 15.5t6.5 15.5t8.5 14.5t9.5 10.5l145 145q7 7 16 11t18 4q7 0 13.5 -2t12.5 -6q5 -4 9.5 -9t8.5 -11l116 -221q5 -8 6.5 -17.5t-1.5 -19.5q-2 -11 -6.5 -19.5
t-11.5 -15.5l-53 -53q-1 -2 -2 -3.5t-2 -4.5q-1 -2 -1.5 -4t-0.5 -4q3 -11 7.5 -24t12.5 -28q6 -13 16.5 -29t23.5 -34q14 -19 33 -40.5t44 -45.5q25 -25 46.5 -44.5t40.5 -33.5t35 -24t28 -17q13 -6 23 -10t16 -5l14 -3q1 0 2.5 0.5l4.5 1.5q2 0 4 1t3 2l62 63
q10 9 21 13.5t24 4.5q10 0 17 -2t13 -5h1l209 -124q11 -6 18 -15t9 -20v0z" />
    <glyph glyph-name="uniE60A" unicode="&#xe60a;" horiz-adv-x="1364" 
d="M1189 868l-674 -672l-340 340l-83 -85l423 -423l758 757z" />
    <glyph glyph-name="uniE60B" unicode="&#xe60b;" 
d="M0 512h1024v-128h-1024v128zM576 960v-1024h-128v1024h128z" />
    <glyph glyph-name="uniE60C" unicode="&#xe60c;" 
d="M968 674q-19 -111 -76 -211t-123.5 -180t-130.5 -135q-63 -56 -96 -77q-64 -43 -118 -2.5t-76 85.5q-12 26 -34 99q-23 73 -47 152.5t-45 145.5t-30 77q-20 24 -61.5 -3l-41.5 -27l-38 49l27 31q26 30 66.5 68t89.5 72q48 35 93 44q48 10 74 -22t40.5 -83t22.5 -111
q8 -59 20 -106q22 -90 39 -139t36 -49t53.5 46t74.5 123q41 77 6.5 127t-113.5 2q16 96 86 154q69 57 143 65t126 -38q53 -46 33 -157v0z" />
    <glyph glyph-name="uniE60D" unicode="&#xe60d;" 
d="M256 819q0 -41 -26.5 -71t-75.5 -30q-47 0 -75 29t-28 70t27.5 73t75.5 32q47 0 74 -30.5t28 -72.5zM51 0v666h205v-666h-205v0zM358 438q0 59 -1.5 109.5t-3.5 92.5h184l9 -88h4q20 31 68 67t128 36q48 0 90 -17q42 -16 72 -50t48 -85q17 -52 17 -122v-381h-205v351
q0 61 -24.5 102.5t-77.5 41.5q-41 0 -63.5 -26.5t-32.5 -53.5q-4 -10 -5.5 -23t-1.5 -26v-366h-205v438v0z" />
    <glyph glyph-name="uniE60E" unicode="&#xe60e;" horiz-adv-x="686" 
d="M91 786l336 -336l-336 -336l82 -83l338 335l83 84l-83 83l-338 336z" />
    <glyph glyph-name="uniE610" unicode="&#xe610;" horiz-adv-x="1008" 
d="M605 823h266v-266h137v403h-403v-137zM861 73h-724v724h-137v-861h861v137zM0 802v-138h467v138h-467zM724 -64h137v483h-137v-483zM447 490l98 -96l376 376l-96 96l-378 -376v0z" />
    <glyph glyph-name="uniE611" unicode="&#xe611;" horiz-adv-x="1645" 
d="M0 960h62v-1024h-62v1024zM0 960h1629v-62h-1629v62zM0 -2h1629v-62h-1629v62zM1583 960h62v-1024h-62v1024zM1505 786l-43 59l-637 -503l-633 503l-46 -59l620 -490l59 -50zM586 476l-440 -351l46 -59l457 363zM1002 429l460 -363l43 59l-453 357z" />
    <glyph glyph-name="uniE900" unicode="&#xe900;" horiz-adv-x="637" 
d="M618 677q-11 0 -20 -5.5t-12 -10.5q0 -1 -0.5 -1.5t-2.5 -0.5q-7 0 -33.5 0.5l-26.5 0.5q1 4 7 32t9 41q4 15 -5 32.5t-11 20.5q-1 2 0 7.5t3 6.5q4 2 9.5 0t9.5 -3q7 0 12 15.5l5 15.5l11 24l0.5 12.5t0.5 16.5t3 6.5t3 27.5q0 32 -39 40.5t-53 -3.5t-17.5 -33t-3.5 -28
q-1 -7 1.5 -27.5t1.5 -24.5t-14 -5.5t-35 -4.5q-23 -3 -35.5 -12.5l-12.5 -9.5l-51 -28t-62 -33q-10 -5 -6.5 -13l3.5 -8l82 -152l36 -32l-7.5 -5t-14.5 -19q-5 -11 -16.5 -39.5t-16.5 -62.5q-2 -15 -43 -82l-41 -67l-32.5 -17.5t-49.5 -30.5t-53.5 -39l-36.5 -26l-40 -8
l-8.5 -1t-9.5 -9t-1 -53.5v-45.5l1.5 -17t19.5 -17q21 0 21 31.5t13 44.5q12 13 29.5 28.5t32.5 21.5q14 5 74 33.5t87 54.5q13 13 38 37q26 25 51 50l43 43l19 19l94 -88l-6 -46.5t-6 -57.5q0 -12 -5.5 -65.5t-13.5 -71.5q-6 -12 -12.5 -20t-8.5 -16q-2 -7 1 -11.5t5 -5.5
q3 -2 39.5 -19.5l36.5 -17.5l17 -6t23 7q5 13 -22.5 37t-27.5 31q0 3 7 39q7 37 16.5 82t17.5 86q9 41 12 53q0 2 0.5 8.5t0.5 9.5q-1 8 -1.5 22.5t-9.5 23.5q-11 12 -58 74l-47 62l36 142l76 22l16 -4l7.5 -1t9.5 2q1 2 2.5 9t1.5 11q-1 2 -2.5 11.5t-14.5 9.5v0zM369 597
q-4 3 -8.5 8t-5.5 6q0 1 -0.5 1.5t-0.5 1.5q-2 7 -14 47t-12 42q-1 1 -0.5 3.5t2.5 3.5t16 9t20 11q1 0 2 -0.5t1 -1.5q0 -2 1.5 -59.5t1.5 -70.5q0 -1 -1 -1.5t-2 0.5z" />
    <glyph glyph-name="uniE901" unicode="&#xe901;" 
d="M440 324q-10 0 -19.5 4t-17.5 11q-35 36 -53 81t-18 92t18 92t53 81l192 192q35 34 79.5 52.5t93.5 18.5t93.5 -18.5t79.5 -52.5q35 -36 53 -81t18 -92t-18 -92t-53 -81l-88 -87q-15 -16 -37 -16t-37 16q-15 15 -15 36.5t15 36.5l88 88q41 41 41 99t-41 99
q-20 20 -45.5 30.5t-53.5 10.5t-53.5 -10.5t-45.5 -30.5l-192 -192q-41 -41 -41 -99t41 -99q15 -15 15 -36.5t-15 -37.5q-8 -7 -17.5 -11t-19.5 -4v0zM256 -52q-49 0 -93.5 18.5t-79.5 52.5q-35 36 -53 81t-18 92t18 92t53 81l88 87q15 16 37 16t37 -16q15 -15 15 -36.5
t-15 -36.5l-88 -88q-41 -41 -41 -99t41 -99q20 -20 45.5 -30.5t53.5 -10.5t53.5 10.5t45.5 30.5l192 192q41 41 41 99t-41 99q-15 15 -15 36.5t15 37.5q15 15 36.5 15t37.5 -15q35 -36 53 -81t18 -92t-18 -92t-53 -81l-192 -192q-35 -34 -79.5 -52.5t-93.5 -18.5v0z" />
    <glyph glyph-name="uniE902" unicode="&#xe902;" 
d="M512 -64q-106 0 -199 40q-93 41 -162.5 110.5t-110.5 162.5q-40 93 -40 199t40 199q41 93 110.5 162.5t162.5 110.5q93 40 199 40t199 -40q93 -41 162.5 -110.5t110.5 -162.5q40 -93 40 -199t-40 -199q-41 -93 -110.5 -162.5t-162.5 -110.5q-93 -40 -199 -40zM512 937
q-101 0 -190 -39q-89 -38 -155.5 -104.5t-104.5 -155.5q-39 -89 -39 -190t39 -190q38 -89 104.5 -155.5t155.5 -104.5q89 -39 190 -39t190 39q89 38 155.5 104.5t104.5 155.5q39 89 39 190t-39 190q-38 89 -104.5 155.5t-155.5 104.5q-89 39 -190 39v0zM403 619v-293
l286 117l-286 -175l287 175z" />
    <glyph glyph-name="uniE903" unicode="&#xe903;" 
d="M403 326l286 117l-286 -175v58z" />
    <glyph glyph-name="uniE904" unicode="&#xe904;" horiz-adv-x="1304" 
d="M675 820h116v-93h-116v93zM862 820h116v-93h-116v93zM1049 820h116v-93h-116v93zM675 657h116v-93h-116v93zM862 657h116v-93h-116v93zM1049 657h116v-93h-116v93zM675 494h116v-93h-116v93zM862 494h116v-93h-116v93zM1049 494h116v-93h-116v93zM675 332h116v-93h-116
v93zM862 332h116v-93h-116v93zM1049 332h116v-93h-116v93zM675 169h116v-93h-116v93zM862 169h116v-93h-116v93zM1049 169h116v-93h-116v93zM45 495h538v-47h-538v47v0zM581 -17h699v-47h-699v47v0zM583 960h698v-47h-698v47zM32 440l-32 32l242 241l32 -32l-242 -241v0z
M244 228l-244 243l32 32l244 -243zM1257 960h47v-1024h-47v1024zM536 262h47v-326h-47v326zM536 960h47v-279h-47v279z" />
    <glyph glyph-name="uniE905" unicode="&#xe905;" horiz-adv-x="841" 
d="M400 960h44v-807h-44v807zM19 516l31 31l403 -403l-31 -31l-403 403v0zM422 113l-31 31l403 403l31 -31l-403 -403v0zM0 -20h841v-44h-841v44z" />
    <glyph glyph-name="uniE906" unicode="&#xe906;" horiz-adv-x="849" 
d="M399 934h52v-980h-52v980zM0 509h45v-555h-45v555v0zM805 508h44v-554h-44v554v0zM231 767l194 193l31 -31l-193 -194l-32 32v0zM393 929l32 31l193 -193l-31 -32l-194 194v0zM0 -20h848v-44h-848v44v0zM0 546h258v-45h-258v45v0zM591 546h258v-43h-258v43z" />
    <glyph glyph-name="uniE907" unicode="&#xe907;" 
d="M356 448v-122h123v122h-70q0 29 20.5 49.5t49.5 20.5v52q-51 0 -87 -35.5t-36 -86.5v0zM654 518v52q-51 0 -87 -35.5t-36 -86.5v-122h123v122h-70q0 29 20.5 49.5t49.5 20.5v0zM512 -71q-107 0 -202 41q-94 41 -164.5 111.5t-111.5 164.5q-41 95 -41 202t41 202
q41 94 111.5 164.5t164.5 111.5q95 41 202 41t202 -41q94 -41 164.5 -111.5t111.5 -164.5q41 -95 41 -202t-41 -202q-41 -94 -111.5 -164.5t-164.5 -111.5q-95 -41 -202 -41v0zM512 953q-104 0 -196 -40q-92 -39 -161 -108t-108 -161q-40 -92 -40 -196t40 -196
q39 -92 108 -161t161 -108q92 -40 196 -40t196 40q92 39 161 108t108 161q40 92 40 196t-40 196q-39 92 -108 161t-161 108q-92 40 -196 40z" />
    <glyph glyph-name="uniE908" unicode="&#xe908;" horiz-adv-x="2768" 
d="M2740 5h-217q16 17 27.5 36.5t16.5 42.5q27 6 64 21t47 43q7 31 11 62t5 63v4.5v4.5q-3 10 -7 19t-9 18q-2 34 -10 67.5t-23 63.5q-15 27 -38.5 45.5t-52.5 26.5l-181 80l-304 282q-5 5 -45.5 33.5t-88.5 28.5h-1207q-30 -1 -52.5 -21.5t-27.5 -50.5q-4 -18 -9 -51
t-10 -71h-532q-8 0 -12 -6.5t0 -13.5q2 -4 5 -5.5t7 -1.5h528q-2 -22 -5 -43.5t-5 -39.5h-407q-8 0 -12 -7t0 -14q1 -3 4.5 -5t7.5 -2h404q-2 -19 -3.5 -32t-2.5 -15v-1v-2v-36h-288q-8 0 -12 -7t0 -13q2 -4 5.5 -5.5t6.5 -1.5h288v-83h-564q-8 0 -12 -7t0 -14q1 -3 4.5 -5
t7.5 -2h564v-83h-398q-8 0 -12 -7t0 -14q1 -3 4.5 -5t7.5 -2h398v-3v-2v-2l2 -14l-15 -5q-10 -4 -14.5 -13.5t-2.5 -19.5l20 -78v-3q3 -10 14.5 -32t38.5 -22h130q6 -22 18 -42.5t28 -37.5h-797q-16 0 -24 -13.5t0 -27.5q3 -7 9.5 -10.5t14.5 -3.5h2712q16 0 24 14t0 27
q-4 7 -10.5 10.5t-13.5 3.5v0zM1827 116h-692v6.5v7.5q0 35 -13 67t-38 57h743v-138zM1122 64q3 -2 6 -2.5t7 -0.5h1093q6 -16 15.5 -30t20.5 -26h-1180q13 13 22.5 28t15.5 31zM2269 130q0 72 62.5 108t124.5 0t62 -108t-62 -108q-14 -8 -30 -12.5t-32 -4.5
q-52 0 -88.5 36.5t-36.5 88.5v0zM2186 628v-164l-209 75q-37 10 -45.5 25t-8.5 17l-30 144q-1 4 -0.5 8t2.5 8q4 4 9 7t11 4h105q21 2 68.5 -35t97.5 -85v-2v-2v0zM2214 606q15 -15 29.5 -29t25.5 -28v-2v-2v-52l-55 -24v137zM2594 423q10 -20 16 -41.5t8 -44.5l-72 56v72
q16 -6 28.5 -17t19.5 -25v0zM2032 843l304 -285q2 -2 4 -3l4 -2l174 -77v-89l2 -6t4 -5l99 -77q1 -4 3 -7.5t5 -5.5q1 -3 3 -7.5t3 -9.5q0 -25 -3 -50.5t-8 -50.5q-12 -9 -25 -15t-27 -9q-4 51 -31 89q-28 39 -68 59t-88 19q-47 -1 -90 -29v263l-2 10l-2 10q-13 14 -47 49
q-35 35 -77 72t-82 66q-41 28 -65 28h-109q-12 -1 -22.5 -7t-18.5 -16q-5 -8 -7 -18t1 -20l30 -142q0 -1 10.5 -25.5t62.5 -38.5l224 -80q1 -1 2 -1t2 1q3 0 5.5 1t4.5 3l62 28v-194q0 -2 1 -3.5t2 -3.5q-28 -26 -43 -61t-15 -73v-7.5v-6.5h-360v775h81q27 -5 52 -17t45 -31
v0zM704 863q4 18 13 22.5t12 4.5h1098v-608h-777q-43 28 -95 28t-96 -28h-198v281q1 7 6 47t11 88.5t13 95.5t11 69h2zM650 156l-13 53l13 5q9 4 14 12.5t3 18.5l-3 9h160q-22 -23 -34.5 -52t-14.5 -61h-119q-2 3 -3.5 7t-2.5 8v0zM830 130q0 72 62.5 108t124.5 0t62 -108
t-62 -108q-14 -8 -30 -12.5t-32 -4.5q-52 0 -88.5 36.5t-36.5 88.5v0zM955 213q-48 0 -72 -41.5t0 -83.5q24 -41 72 -41t72 41q5 10 8 20.5t3 21.5q0 34 -24.5 58.5t-58.5 24.5v0zM955 74q-32 0 -48 28t0 55q16 28 48 28t48 -28q3 -6 5 -13t2 -14q0 -23 -16 -39.5t-39 -16.5
v0zM2394 213q-48 0 -72 -41.5t0 -83.5q24 -41 72 -41t72 41q5 10 8 20.5t3 21.5q0 34 -24.5 58.5t-58.5 24.5v0zM2394 74q-32 0 -48 28t0 55q16 28 48 28t48 -28q4 -6 5.5 -13t1.5 -14q0 -23 -16 -39.5t-39 -16.5v0zM1896 448h83q8 0 12 7t0 14q-2 3 -5 5t-7 2h-83
q-8 0 -12 -7t0 -14q2 -3 5 -5t7 -2zM996 570q-12 15 -29.5 23t-36.5 7q-6 1 -12.5 0t-12.5 -3q-19 -3 -34.5 -14.5t-23.5 -29.5q-7 -10 -10.5 -21t-3.5 -23v-91h47v94q2 9 7 17t12 13q7 6 16 8t18 0q7 0 13.5 -3t11.5 -8q7 -6 11.5 -15.5t4.5 -20.5v-83h47v81q1 5 0 9.5
t-3 9.5q-2 14 -7.5 26.5t-14.5 23.5v0zM869 644q10 -8 22 -12t25 -4q8 -1 15.5 -1t15.5 1q16 4 30.5 13t24.5 23q12 15 18 33.5t4 38.5q-1 9 -4 18t-7 18l30 30l-33 33l-30 -30l-1.5 -1t-1.5 1q-10 6 -20.5 9.5t-21.5 4.5q-7 0 -15 -0.5t-15 -2.5q-15 -3 -27.5 -11
t-22.5 -19q-10 -12 -16 -26t-9 -30q0 -7 0.5 -14t2.5 -13q3 -18 12.5 -33t23.5 -26v0zM930 772q22 0 37.5 -16.5t14.5 -39.5q-3 -20 -18.5 -34t-36.5 -15q-21 1 -36 16t-16 36q-1 23 15.5 38.5t39.5 14.5v0z" />
    <glyph glyph-name="uniE909" unicode="&#xe909;" 
d="M940 945h-856q-7 0 -11 -4.5t-4 -11.5v-962q0 -7 4 -11.5t11 -4.5h627q3 0 5.5 1.5t4.5 3.5l230 225q2 2 3 4.5t1 5.5v738q0 7 -4 11.5t-11 4.5zM99 914h826v-703h-214q-7 0 -11.5 -4t-4.5 -11v-214h-596v932v0zM908 181l-182 -178v178h182zM443 150h-260q-3 0 -5 -2
t-2 -6q0 -3 2 -5t5 -2h260q4 0 6 2t2 5q0 4 -2 6t-6 2zM642 257h-459q-3 0 -5 -2t-2 -6q0 -3 2 -5t5 -2h459q3 0 5.5 2t2.5 5q0 4 -2.5 6t-5.5 2zM183 379q-3 0 -5 -2t-2 -5q0 -4 2 -6t5 -2h260q4 0 6 2t2 6q0 3 -2 5t-6 2h-260v0zM176 479q0 -4 2 -6t5 -2h459q3 0 5.5 2
t2.5 6q0 3 -2.5 5t-5.5 2h-459q-3 0 -5 -2t-2 -5v0zM764 242h77q3 0 5 2t2 5q0 4 -2 6t-5 2h-77q-3 0 -5 -2t-2 -6q0 -3 2 -5t5 -2zM764 364h77q3 0 5 2t2 6q0 3 -2 5t-5 2h-77q-3 0 -5 -2t-2 -5q0 -4 2 -6t5 -2zM764 471h77q3 0 5 2t2 6q0 3 -2 5t-5 2h-77q-3 0 -5 -2
t-2 -5q0 -4 2 -6t5 -2zM248 608h11h13v2v0v19.5v20.5v4.5t-1 5.5q-2 7 -4.5 13.5t-8.5 11.5q-7 7 -15 11t-18 4h-7.5t-6.5 -1q-10 -3 -17.5 -8.5t-13.5 -13.5q-3 -5 -4.5 -10.5t-2.5 -12.5v-22.5v-23.5v-0.5v-0.5h11h12v0.5v0.5v19v18v4.5v4.5q1 5 3 9t6 7q3 2 7.5 3t9.5 1
q3 0 6.5 -2t5.5 -4q3 -3 5 -8.5t2 -9.5v-21v-21q5 2 6 1l1 -1v0zM196 720q5 -3 11 -6t12 -3q3 -1 7 -0.5t8 0.5q8 2 15.5 6t13.5 12q7 8 9.5 17.5t1.5 19.5q-2 4 -3 9t-4 9v1v1v0v0v0q4 3 7.5 6.5t6.5 7.5l1 0.5l1 0.5l-8.5 8.5l-8.5 8.5l-1 -1l-1 -1l-6.5 -6.5l-6.5 -6.5
l-1 -1t-1 1q-4 2 -10 4t-11 2q-4 0 -8 -0.5t-8 -1.5q-8 -2 -14 -5.5t-12 -9.5q-5 -6 -8 -13t-4 -16q0 -4 0.5 -7t1.5 -7q2 -8 7 -15.5t13 -13.5v0zM225 787q10 0 18 -8t8 -19t-8 -18.5t-20 -7.5q-11 0 -19 8t-8 19q1 11 9 18.5t20 7.5v0z" />
    <glyph glyph-name="uniE90A" unicode="&#xe90a;" 
d="M504 378h-279q-4 0 -6 -2t-2 -6q0 -3 2 -5t6 -2h279q4 0 6 2t2 5q0 4 -2 6t-6 2zM225 456h512q3 0 5.5 2t2.5 6q0 3 -2.5 5t-5.5 2h-512q-4 0 -6 -2t-2 -5q0 -4 2 -6t6 -2v0zM225 549h372q4 0 6 2t2 6q0 3 -2 5t-6 2h-372q-4 0 -6 -2t-2 -5q0 -4 2 -6t6 -2v0zM225 642
h512q3 0 5.5 2t2.5 6q0 3 -2.5 5t-5.5 2h-512q-4 0 -6 -2t-2 -5q0 -4 2 -6t6 -2v0zM365 285h-140q-4 0 -6 -2t-2 -6q0 -3 2 -5t6 -2h140q3 0 5 2t2 5q0 4 -2 6t-5 2zM225 735h264q3 0 5 2t2 6q0 3 -2 5.5t-5 2.5h-264q-4 0 -6 -2.5t-2 -5.5q0 -4 2 -6t6 -2v0zM225 828h512
q3 0 5.5 2t2.5 6q0 3 -2.5 5.5t-5.5 2.5h-512q-4 0 -6 -2.5t-2 -5.5q0 -4 2 -6t6 -2v0zM884 254q0 31 -12.5 57.5t-33.5 46.5v579q0 7 -4.5 11t-11.5 4h-667q-7 0 -11 -4t-4 -11v-761q0 -6 4 -10.5t11 -4.5h486q2 -2 4.5 -5.5t6.5 -5.5v-189q0 -5 2 -8.5t7 -5.5q1 -1 3 -1.5
t3 -0.5q2 0 4.5 1t4.5 2l63 49l76 -50q3 -2 7.5 -2t7.5 2q4 2 6 5.5t2 8.5v189q21 20 33.5 46.5t12.5 57.5v0zM853 254q0 -45 -31.5 -77t-76.5 -32q-46 0 -77.5 32t-31.5 77t31.5 77t77.5 32q45 0 76.5 -32t31.5 -77zM171 192v729h636v-541q-14 7 -30 10.5t-32 3.5
q-58 0 -99 -41t-41 -99q0 -16 3.5 -32t10.5 -30h-448v0zM807 -11l-62 40q-5 2 -9.5 2t-9.5 -3l-43 -36v138q14 -7 29.5 -11.5t32.5 -4.5q16 0 32 3.5t30 10.5v-139v0zM745 347q-39 0 -66 -27.5t-27 -65.5t27 -65.5t66 -27.5q38 0 65.5 27.5t27.5 65.5t-27.5 65.5t-65.5 27.5
zM745 176q-33 0 -55.5 22.5t-22.5 55.5t22.5 55.5t55.5 22.5q32 0 54.5 -22.5t22.5 -55.5t-22.5 -55.5t-54.5 -22.5z" />
    <glyph glyph-name="uniE90B" unicode="&#xe90b;" 
d="M1009 648v0v0v0h-656q-4 0 -7 -3t-3 -8v-61h-328q-4 0 -7 -3t-3 -7q0 -5 3 -7.5t7 -2.5h328v-41h-235q-5 0 -8 -3t-3 -8q0 -4 3 -7t8 -3h235v-5v-10v-26h-143q-5 0 -8 -3t-3 -7q0 -5 3 -7.5t8 -2.5h143v-20.5v-20.5h-328q-4 0 -7 -3t-3 -8q0 -4 3 -7t7 -3h327v-24v-23
h-234q-5 0 -8 -3t-3 -7q0 -5 3 -7.5t8 -2.5h234v-8.5v-6.5q0 -22 12.5 -30t25.5 -10q1 0 2 -0.5t2 -0.5h625q4 0 7 3t3 8v378q0 5 -3 8t-7 3v0zM718 627q-3 -11 -12.5 -17.5t-21.5 -6.5t-21 6.5t-13 17.5h68v0zM362 289v33.5v55.5q0 1 1 2l1 1q0 1 -0.5 2t-1.5 2q0 38 1 71
l1 33v138h277q4 -14 16 -24.5t28 -10.5t28 10t16 25h269v-60q-7 -14 -23 -27.5t-45 -26.5q-8 -4 -35.5 -17.5t-68.5 -33.5q-43 -21 -98 -47q-54 -27 -110 -53.5t-107 -51.5q-52 -24 -89 -41h-24q-25 0 -30.5 5.5t-5.5 14.5v0zM701 391q29 13 56.5 26.5t51.5 25.5h138v-133
h-246v81zM446 269q50 22 115 53.5t130 63.5v-81q0 -3 1.5 -4t3.5 -1h256q3 0 4 1t1 4v143q0 2 -1 3.5t-4 1.5h-122h0.5h0.5q41 20 68.5 33t35.5 17q24 11 39.5 22.5t24.5 22.5l-1 -279h-552v0zM485 480q-5 6 -12 9t-14 3h-5.5t-4.5 -1q-8 -2 -14 -6t-11 -11q-2 -4 -3.5 -8.5
t-1.5 -10.5v-18v-19v-1h9h10v1v15.5v14.5v4v3q1 4 2.5 7t4.5 5q4 3 7.5 4t7.5 1q3 0 5.5 -1.5t4.5 -4.5q3 -3 4.5 -6.5t1.5 -8.5v-16.5v-17.5v-1h10.5h9.5v1v0v17v16q0 2 -0.5 4t-0.5 4q-1 7 -3.5 12t-6.5 10zM433 508q5 -3 9.5 -5t10.5 -2q3 -1 6 -0.5t7 0.5q7 2 13 5.5
t10 9.5q6 6 8 13.5t1 15.5l-2 8t-3 8v1l5.5 5.5l5.5 5.5l1 1l-6.5 6.5l-6.5 6.5l-2 -1l-5.5 -5.5l-5.5 -5.5l-0.5 -0.5t-0.5 0.5q-4 2 -8 3.5t-8 1.5h-6t-6 -1q-7 -1 -12 -4.5t-9 -7.5q-5 -6 -7 -11.5t-3 -12.5v-5.5t1 -5.5q0 -7 3.5 -13t9.5 -11zM458 563q8 0 14.5 -6.5
t6.5 -16.5q0 -8 -6.5 -14.5t-14.5 -6.5q-9 0 -15.5 6.5t-6.5 14.5q-1 9 6 16t16 7z" />
    <glyph glyph-name="uniE90C" unicode="&#xe90c;" 
d="M36 463h231q4 0 7 3t3 8q0 4 -3 7t-7 3h-228l56 55q3 3 3 7t-3 7q-3 4 -7.5 4t-7.5 -4l-74 -74q-2 -2 -2.5 -3.5t-0.5 -3.5q0 -3 0.5 -4.5t2.5 -3.5l74 -74q2 -2 4 -2.5t4 -0.5q1 0 3 0.5t4 2.5q3 3 3 7t-3 7l-59 59v0zM1018 479l-74 74q-3 4 -7.5 4t-7.5 -4q-3 -3 -3 -7
t3 -7l56 -55h-227q-4 0 -7 -3t-3 -7q0 -5 3 -8t7 -3h230l-59 -58q-3 -3 -3 -7t3 -7q2 -2 4 -2.5t3 -0.5q2 0 4 0.5t4 2.5l74 74q2 2 2.5 3.5t0.5 4.5q0 2 -0.5 3t-2.5 3v0zM735 293h7.5h7.5v1v13v13v3.5v2.5q-1 5 -2.5 8.5t-4.5 7.5q-4 4 -9 6.5t-12 3.5q-1 0 -3 -0.5
t-5 -0.5q-6 -2 -10.5 -5t-8.5 -9q-3 -3 -3.5 -6.5t-0.5 -7.5v-14.5v-14.5v-1h7.5h7.5v1v12.5v11.5v3v3q1 3 2.5 5.5t3.5 4.5t5 2.5t6 0.5t5 -0.5t4 -3.5q2 -2 2.5 -5.5t0.5 -7.5v-11.5v-15.5v1v-1zM747 407l4.5 4.5l3.5 3.5v0l1 1q-2 3 -5 5.5t-5 4.5l-4 -3.5t-5 -5.5v0h-1
q-3 2 -6.5 3t-7.5 1h-4t-5 -1q-4 0 -8 -3t-8 -7q-3 -4 -5.5 -8.5t-2.5 -9.5v-5v-5q1 -6 4 -10.5t8 -8.5q3 -2 7 -3.5t8 -2.5h5.5h5.5q5 1 9.5 4t8.5 7q4 6 6 11.5t1 12.5q-1 4 -2 7.5t-3 7.5v-1v1q0 -1 0 -0.5v0.5v0zM720 373q-7 0 -12 5.5t-5 12.5t5 12t12 5t12 -5t5 -12
q0 -8 -5 -13t-12 -5zM840 443v0v0q-4 0 -7 -3t-3 -7v-164h-566q37 17 88 41q50 24 104 50t107 51q53 26 95 46q40 19 67.5 32.5t34.5 16.5q29 13 45.5 26.5t24.5 26.5v-45q0 -5 3 -8t7 -3q5 0 7.5 3t2.5 8v122q0 5 -2.5 8t-7.5 3h-655q-5 0 -7.5 -3t-2.5 -8v-122
q0 -5 2.5 -8t7.5 -3q4 0 7 3t3 8v112h272q5 -13 16.5 -22t26.5 -9q16 0 27.5 9t15.5 22h277v-43q-5 -17 -21.5 -34t-52.5 -33q-7 -4 -34.5 -17.5t-67.5 -33.5q-45 -21 -103 -49q-57 -27 -114.5 -54.5t-109.5 -52.5q-53 -24 -88 -40h-18q-18 1 -22 8t-4 15v74.5v66.5h-20v-67
v-74q0 -17 9 -28t27 -14q1 0 2.5 -0.5t3.5 -0.5h6h4h4h1h1h607q5 0 7.5 3t2.5 8v0.5v1.5v172q0 3 -2.5 6t-7.5 3zM510 606q-10 0 -18.5 5.5t-12.5 14.5h63q-4 -8 -12.5 -14t-19.5 -6v0z" />
    <glyph glyph-name="uniE90D" unicode="&#xe90d;" 
d="M1003 363h-54v36q0 30 -17 54t-45 32l-6 2t-7 2v300q0 5 -3 8t-8 3h-842q-4 0 -7 -3t-3 -8v-480q0 -4 3 -7t7 -3h672v0v0v-192q0 -5 3 -8t8 -3h299q4 0 7 3t3 8v245q0 5 -3 8t-7 3v0zM928 399v-36h-139v36q0 17 8 31.5t21 23.5q14 10 30.5 13t33.5 -3q20 -6 33 -24.5
t13 -40.5v0zM693 352v-32v0v0h-661v459h821v-54h-816q-2 0 -3.5 -1.5t-1.5 -3.5t1.5 -3.5t3.5 -1.5h816v-43h-816q-2 0 -3.5 -1.5t-1.5 -3.5q0 -3 1.5 -4.5t3.5 -1.5h816v-171q-12 -1 -24 -5t-24 -12q-17 -13 -27 -32.5t-10 -41.5v-36h-64q-4 0 -7.5 -3t-3.5 -8v0zM992 117
h-277v224h277v-224zM944 224h-171q-2 0 -3.5 -1.5t-1.5 -3.5q0 -3 1.5 -4.5t3.5 -1.5h171q2 0 3.5 1.5t1.5 4.5q0 2 -1.5 3.5t-3.5 1.5zM944 181h-171q-2 0 -3.5 -1.5t-1.5 -3.5t1.5 -3.5t3.5 -1.5h171q2 0 3.5 1.5t1.5 3.5t-1.5 3.5t-3.5 1.5zM768 261q0 -2 1.5 -3.5
t3.5 -1.5h171q2 0 3.5 1.5t1.5 3.5q0 3 -1.5 4.5t-3.5 1.5h-171q-1 0 -3 -2t-2 -4zM261 597h-160q-2 0 -3.5 -1.5t-1.5 -3.5v-107q0 -2 1.5 -3.5t3.5 -1.5h160q3 0 4.5 1.5t1.5 3.5v107q0 2 -1.5 3.5t-4.5 1.5zM160 544h-53v21h51l2 -2v-19v0zM107 533h53v-19l-2 -2h-51v21
v0zM171 544h21v-21h-21v21zM203 563l2 2h51v-21h-53v19zM203 533h53v-21h-51l-2 2v19v0zM256 587v-11h-53q-1 0 -2.5 -0.5t-2.5 -0.5l-5 -5q0 -1 -0.5 -2.5t-0.5 -2.5v-10h-21v10q0 1 -0.5 2.5t-0.5 2.5l-6 5q-1 0 -2 0.5t-2 0.5h-53v11h149zM107 491v10h53q1 0 2 0.5t2 0.5
l6 6q0 1 0.5 1.5t0.5 2.5v0h21q0 -1 0.5 -2t0.5 -2l5 -6q1 0 2 -0.5t3 -0.5h53v-10h-149zM229 395h-128q-2 0 -3.5 -1.5t-1.5 -4.5q0 -2 1.5 -3.5t3.5 -1.5h128q3 0 4.5 1.5t1.5 3.5q0 3 -1.5 4.5t-4.5 1.5zM421 395h-128q-2 0 -3.5 -1.5t-1.5 -4.5q0 -2 1.5 -3.5t3.5 -1.5
h128q3 0 4.5 1.5t1.5 3.5q0 3 -1.5 4.5t-4.5 1.5zM603 395h-128q-3 0 -4.5 -1.5t-1.5 -4.5q0 -2 1.5 -3.5t4.5 -1.5h128q2 0 3.5 1.5t1.5 3.5q0 3 -1.5 4.5t-3.5 1.5z" />
    <glyph glyph-name="uniE90E" unicode="&#xe90e;" 
d="M995 762h-667q-3 0 -4.5 -1t-3.5 -2q-2 -2 -3 -4t-1 -4v-231h-293q-3 0 -4.5 -1.5t-1.5 -3.5v-288q0 -1 0.5 -2.5t0.5 -2.5q1 0 2.5 -0.5t2.5 -0.5v0v0h130v-81q0 -2 1 -3.5t2 -2.5h1.5h1.5h1.5t1.5 1l96 86h162q3 0 4.5 2t1.5 4v75h221l145 -130q1 -2 3 -3t5 -1
q1 0 2 0.5t2 1.5q4 1 5.5 3.5t1.5 6.5v122h184q5 0 8.5 3t3.5 8v438q0 5 -3.5 8t-8.5 3v0zM414 233h-159h-1t-2 -1l-87 -80v75q0 1 -1 2.5t-1 2.5q-1 1 -2 1h-2v0v0h-130v276h287v-196q0 -5 3.5 -8t8.5 -3h86v-69v0zM984 325h-184q-6 0 -9 -3t-3 -9v-107l-129 115q-1 2 -3 3
t-5 1h-312v414h645v-414v0zM288 371h-219v0v0q-3 0 -4.5 -1.5t-1.5 -4.5q0 -2 1.5 -4t4.5 -2h219v0v0q2 0 3.5 2t1.5 4q0 3 -1.5 4.5t-3.5 1.5zM69 417h173v0v0q2 0 3.5 1.5t1.5 4.5q0 2 -1.5 3.5t-3.5 1.5h-173v0v0q-3 0 -4.5 -1.5t-1.5 -3.5q0 -3 1.5 -4.5t4.5 -1.5v0z
M196 312h-127q-3 0 -4.5 -1.5t-1.5 -4.5q0 -2 1.5 -3.5t4.5 -1.5h127q2 0 3.5 1.5t1.5 3.5q0 3 -1.5 4.5t-3.5 1.5v0zM591 558h30q3 0 4.5 2t1.5 4q2 19 12 29t26 10t25.5 -8t9.5 -24q0 -11 -7 -20t-15 -18q-2 -2 -4.5 -4t-3.5 -4q-12 -12 -17.5 -22t-5.5 -25v-2.5t1 -2.5
t2 -1.5t2 -0.5h27q2 0 4 1.5t2 4.5q0 5 2.5 11t10.5 15v0v0l4 5q12 13 23 28.5t11 35.5q0 32 -20 50t-53 18q-32 0 -53.5 -20.5t-26.5 -55.5q0 -1 0.5 -2.5l0.5 -1.5q3 0 4.5 -1t2.5 -1v0zM665 451q-10 0 -17.5 -7.5t-7.5 -17.5t7.5 -17.5t17.5 -7.5t17.5 7.5t7.5 17.5
t-7.5 17.5t-17.5 7.5z" />
    <glyph glyph-name="uniE90F" unicode="&#xe90f;" 
d="M1001 808h-460q-1 0 -2.5 -1t-2.5 -1t-1 -1.5v-2.5v-121h-506q-5 0 -8.5 -3t-3.5 -9v-437q0 -2 1 -4t3 -4q1 -2 3 -2.5t5 -0.5h184v-121q0 -3 1.5 -6.5t5.5 -3.5q1 -1 2 -1.5t2 -0.5q2 0 4.5 1t3.5 3l143 129h333q5 0 8 3t3 8v265h42l98 -89q1 -1 2 -1h2h1h1q2 1 3 2.5
t1 3.5v84h132q3 0 4.5 1.5t1.5 4.5v299q0 2 -1.5 4t-4.5 2v0zM696 244h-326q-1 0 -3.5 -1t-4.5 -3l-126 -114v106q0 3 -1 5t-3 3q-1 2 -3 3t-5 1v0v0h-184v414h656v-414v0zM995 508h-132q-3 0 -4.5 -1.5t-1.5 -3.5v-77l-91 81q-1 1 -1.5 1h-1.5h-44v161q0 3 -1 5l-2 4l-4 2
t-4 1h-161v115h448v-288v0zM408 451q0 -14 -10 -24.5t-24 -10.5t-24.5 10.5t-10.5 24.5t10.5 24t24.5 10t24 -10t10 -24v0zM570 451q0 -14 -10.5 -24.5t-24.5 -10.5t-24.5 10.5t-10.5 24.5t10.5 24t24.5 10t24.5 -10t10.5 -24v0zM236 451q0 -14 -10 -24.5t-25 -10.5
q-14 0 -24 10.5t-10 24.5t10 24t24 10q15 0 25 -10t10 -24v0z" />
    <glyph glyph-name="uniE910" unicode="&#xe910;" 
d="M1005 728q0 35 -27 64.5t-59 39.5q-7 2 -138 18q-131 15 -289 33.5t-295 33.5q-136 15 -154 17q-3 0 -6.5 -1t-5.5 -2q-2 -2 -3 -5t-1 -5v-227q0 -6 4 -10t9 -5l614 -79l-513 -47q-23 0 -42.5 -8t-34.5 -22q-29 -29 -34 -65t-5 -37v-247q0 -1 17 -56t135 -67
q54 -6 187 -21q134 -14 272.5 -29.5t245.5 -26.5l106 -12h2q2 0 5 1t5 3q2 3 3.5 6t1.5 5v228q0 6 -4 10t-10 5l-665 80q71 6 157 14q85 7 165.5 14.5t145.5 13.5q64 6 90 10q91 15 106 62.5t15 49.5v252v1v0v6v5v0zM55 707v197q18 -2 36.5 -4t37.5 -3v-174q0 -3 2 -5t6 -2
v0q3 0 5 2t2 5v172q22 -2 44.5 -4.5t44.5 -5.5v-102q0 -4 2 -6t5 -2v0q4 0 6 2t2 6v101q22 -3 44.5 -5t44.5 -6v-165q0 -3 2 -5t5 -2v0q4 0 6 2t2 5v164q26 -4 52 -6.5t52 -5.5v-107q0 -3 2 -5t5 -2v0q3 0 5 2t2 5v105q23 -2 45.5 -5t43.5 -5v-169q0 -4 2.5 -6t5.5 -2v0
q3 0 5 2t2 6v167q24 -2 46 -5t43 -5v-98q0 -3 2 -5t6 -2v0q3 0 5 2t2 5v97q25 -4 47 -6.5t42 -4.5v-175q0 -3 2 -5t6 -2v0q3 0 5 2t2 5v174q28 -4 50 -7t39 -5v-103q0 -3 2 -5t6 -2v0q3 0 5 2t2 5v100q9 -1 15 -2t9 -3q23 -7 44 -28.5t21 -46.5q0 -69 -24.5 -86t-25.5 -18
l-138 -13h-2h-1l-729 96v0zM975 -8q-39 4 -150 16t-238 26t-243 27q-115 13 -164 18q-96 10 -110.5 50t-14.5 44v167q15 -17 35.5 -28.5t38.5 -17.5v-166q0 -3 2 -5t6 -2v0q3 0 5 2t2 5v163l88 -10v-108q0 -4 2 -6t5 -2v0q3 0 5 2t2 6v107l89 -11v-169q0 -3 2 -5t6 -2v0
q3 0 5 2t2 5v168l104 -12v-97q0 -3 2 -5t6 -2v0q3 0 5 2t2 5v95l89 -10v-172q0 -4 2 -6t5 -2v0q4 0 6 2t2 6v170l89 -10v-101q0 -3 2 -5t5 -2v0q4 0 6 2t2 5v100l89 -11v-178q0 -3 2 -5t5 -2v0q4 0 6 2t2 5l1 174l89 -11v-105q0 -3 2 -5t6 -2v0q3 0 5 2t2 5v104l89 -11v-201
v0zM975 462q0 -2 -12 -36t-83 -46q-36 -5 -141 -15t-221.5 -20t-215.5 -19q-98 -8 -122 -9l-32 3q-3 0 -48 19t-45 80l3.5 29.5t26.5 52.5q10 11 24 15.5t32 4.5l788 73q1 0 15.5 5.5t30.5 24.5v-162v0z" />
    <glyph glyph-name="uniE911" unicode="&#xe911;" 
d="M511 942q-65 0 -123 -25q-57 -26 -100 -69.5t-68 -102.5t-25 -126q0 -34 8 -70t17 -59v-0.5t1 -0.5l277 -518q2 -4 5.5 -6t7.5 -2t7.5 2t5.5 6l277 518v0.5t1 0.5q9 23 17 59t8 70q0 67 -25 126t-68 102.5t-100 69.5q-58 25 -123 25v0zM776 500l-263 -493l-264 493
q-9 23 -16 56t-7 63q0 61 22 114q23 54 61.5 94t90.5 63t111 23t112 -23q52 -23 91 -63t61 -94q23 -53 23 -114q0 -30 -7 -63t-15 -56v0zM513 768q-59 0 -100.5 -41.5t-41.5 -100.5t41 -100.5t101 -41.5q59 0 100 41.5t41 100.5t-41.5 100.5t-99.5 41.5v0zM513 514
q-47 0 -80 32.5t-33 79.5t32.5 80t80.5 33q46 0 79 -33t33 -80t-33 -79.5t-79 -32.5z" />
    <glyph glyph-name="uniE912" unicode="&#xe912;" 
d="M685 942h-345q-33 0 -55.5 -22.5t-22.5 -55.5v-831q0 -33 22.5 -56t55.5 -23h345q33 0 55.5 23t22.5 56v831q0 33 -22.5 55.5t-55.5 22.5zM293 738h439v-517h-439v517v0zM293 864q0 20 13.5 33.5t33.5 13.5h345q20 0 33.5 -13.5t13.5 -33.5v-94h-439v94v0zM685 -14h-345
q-20 0 -33.5 13.5t-13.5 33.5v156h439v-156q0 -20 -13.5 -33.5t-33.5 -13.5v0zM512 142q-22 0 -38 -16t-16 -38q0 -23 16 -39t38 -16q23 0 39 16t16 39q0 22 -16 38t-39 16zM512 48q-16 0 -27.5 11.5t-11.5 28.5q0 16 11.5 27.5t27.5 11.5q17 0 28.5 -11.5t11.5 -27.5
q0 -17 -11.5 -28.5t-28.5 -11.5zM622 864h-157q-7 0 -11 -4.5t-4 -11.5t4 -11.5t11 -4.5h157q7 0 11.5 4.5t4.5 11.5t-4.5 11.5t-11.5 4.5zM418 848q0 -6 -4.5 -11t-10.5 -5q-7 0 -11.5 5t-4.5 11q0 7 4.5 11.5t11.5 4.5q6 0 10.5 -4.5t4.5 -11.5z" />
    <glyph glyph-name="uniE913" unicode="&#xe913;" 
d="M950 373q-14 0 -25.5 4t-23.5 11q-10 5 -23 10.5t-31 9.5q-3 10 -4 22t4 17q1 1 1 2v3q13 16 24 43t11 69q0 61 -27.5 94.5t-77.5 33.5q-48 0 -77.5 -34.5t-29.5 -89.5q0 -43 10.5 -72.5t26.5 -49.5q4 -5 3 -16.5t-4 -20.5q-17 -4 -30 -9.5t-24 -10.5q-12 -7 -23.5 -11
t-25.5 -4q-27 0 -45 -22t-21 -50l-11 5.5t-11 4.5q-14 7 -31.5 14.5t-41.5 13.5q-4 13 -5 28t4 21q0 1 1 2.5t1 2.5q21 27 35 65t14 92q0 86 -39 132.5t-111 46.5q-67 0 -108.5 -47.5t-41.5 -126.5q0 -60 15 -101.5t36 -67.5q4 -7 3 -21t-5 -26q-24 -6 -41.5 -13.5
t-31.5 -14.5q-17 -8 -32 -13.5t-35 -5.5q-42 0 -68.5 -38t-26.5 -78q0 -5 3 -8t8 -3t8 3t3 8q0 33 21 63.5t52 30.5q24 0 41.5 7t34.5 15q15 7 32.5 14.5t42.5 11.5q2 1 4.5 3t3.5 5q2 4 4.5 14t3.5 22q18 -14 37.5 -21t36.5 -7q16 0 35 7.5t37 22.5q1 -12 4 -23.5t3 -14.5
q1 -2 3.5 -4.5t5.5 -3.5q25 -4 42.5 -11.5t32.5 -14.5q16 -8 34 -15t41 -7q32 0 53 -30.5t21 -63.5q0 -5 3 -8t8 -3q4 0 7 3t3 8q0 41 -26.5 78.5t-68.5 37.5q-9 -1 -17.5 0.5t-16.5 3.5q3 24 18 44.5t38 20.5q16 0 28 5t25 11q10 6 23.5 11t30.5 8q2 0 3 1.5t2 2.5
q0 1 2.5 10.5t2.5 19.5q14 -12 29 -17t28 -5q10 0 24.5 5.5t29.5 19.5q0 -12 2 -21.5t3 -11.5t2 -3t3 -1q18 -3 31 -8.5t23 -10.5q13 -6 25 -11t28 -5q24 0 40 -23t16 -48q0 -3 1.5 -4.5t3.5 -1.5t3.5 1.5t1.5 4.5q2 28 -16.5 55t-47.5 27v0zM343 357q-14 0 -37 9t-45 33
q0 1 -1 2l-2 2v0v0q-18 22 -31 59t-13 93q0 68 36 110.5t93 42.5q62 0 95 -41t33 -117q0 -102 -47.5 -147.5t-80.5 -45.5v0zM778 420q-20 0 -58 28t-38 118q0 50 26 81.5t70 31.5q45 0 70 -30.5t25 -86.5q0 -75 -35.5 -108.5t-59.5 -33.5v0z" />
    <glyph glyph-name="uniE914" unicode="&#xe914;" 
d="M1004 -9l-253 250q-5 5 -10.5 5.5t-12.5 -0.5l-62 64q48 52 75 118t27 141q0 79 -30 148q-29 69 -80.5 120.5t-120.5 80.5q-69 30 -148 30q-78 0 -147 -30q-69 -29 -120.5 -80.5t-81.5 -120.5q-29 -69 -29 -148q0 -78 29 -147q30 -69 81.5 -120.5t120.5 -80.5
q69 -30 147 -30q75 0 141.5 28t118.5 74l64 -64q-2 -5 -0.5 -12t5.5 -12l250 -250q4 -4 8.5 -5.5t8.5 -1.5q3 0 8 1.5t8 5.5q9 7 9.5 18t-6.5 18v0zM389 238q-68 0 -129 26q-60 26 -105 71t-71 105q-26 61 -26 129q0 69 26 130q26 60 71 105t105 71q61 25 129 25
q69 0 129 -25q61 -26 106 -71t70 -105q26 -61 26 -130q0 -68 -26 -129q-25 -60 -70 -105t-106 -71q-60 -26 -129 -26v0z" />
    <glyph glyph-name="uniE915" unicode="&#xe915;" 
d="M998 736h-972q-6 0 -9.5 -3.5t-3.5 -9.5v-550q0 -6 3.5 -9.5t9.5 -3.5h972q6 0 9.5 3.5t3.5 9.5v550q0 6 -4 9.5t-9 3.5zM740 396q-2 1 -4.5 0.5t-4.5 -2.5t-1.5 -4.5t2.5 -4.5l241 -199h-921l258 202q2 2 2.5 4.5t-1.5 4.5t-4.5 2.5t-4.5 -1.5l-264 -207v508l465 -402
q1 -1 2 -1h2h2t2 1l473 408v-513l-244 204v0zM45 710h927l-465 -399l-462 399v0z" />
    <glyph glyph-name="uniE916" unicode="&#xe916;" 
d="M512 448l-418 -245q32 -53 76 -98q44 -44 98 -75.5t115 -48.5q62 -17 129 -17t129 17q61 17 115 48.5t98 75.5q44 45 76 98l-418 245v0z" />
    <glyph glyph-name="uniE917" unicode="&#xe917;" 
d="M512 448l418 -245q31 54 48.5 116t17.5 129q0 100 -38 189q-38 88 -103.5 153.5t-153.5 103.5q-89 38 -189 38v-484v0z" />
    <glyph glyph-name="uniE918" unicode="&#xe918;" 
d="M512 932v-968q100 0 189 38q88 38 153.5 103.5t103.5 153.5q38 89 38 189t-38 189q-38 88 -103.5 153.5t-153.5 103.5q-89 38 -189 38v0z" />
    <glyph glyph-name="uniE919" unicode="&#xe919;" 
d="M649 -43l-213 419h126l87 -169l85 169h127l-212 -419v0zM448 604l116 -228h169l-286 563l-284 -563h170l115 228v0z" />
    <glyph glyph-name="uniE91A" unicode="&#xe91a;" 
d="M996 448q0 -100 -38 -189q-38 -88 -103.5 -153.5t-153.5 -103.5q-89 -38 -189 -38t-189 38q-88 38 -153.5 103.5t-103.5 153.5q-38 89 -38 189t38 189q38 88 103.5 153.5t153.5 103.5q89 38 189 38t189 -38q88 -38 153.5 -103.5t103.5 -153.5q38 -89 38 -189z" />
    <glyph glyph-name="uniE91B" unicode="&#xe91b;" horiz-adv-x="1141" 
d="M1107 834q-2 2 -4.5 3.5t-5.5 1.5h-175v87q0 7 -4 11t-11 4t-11 -4t-4 -11v-87h-570v87q0 7 -4 11t-11 4q-6 0 -10 -4t-4 -11v-87h-176q-7 0 -11 -4t-4 -11v-541q0 -7 4 -11t11 -4t11 4t4 11v380h951v-614h-732q-6 0 -10.5 -4t-4.5 -11t4.5 -11t10.5 -4h746q7 0 11 4
t4 11v790q0 3 -1 5.5t-4 4.5v0zM132 678v131h161v-44q0 -6 4 -10t10 -4q7 0 11 4t4 10v44h570v-44q0 -6 4 -10t11 -4t11 4t4 10v44h161v-131h-951v0zM439 151q6 0 10 4t4 11q0 6 -4 10t-10 4h-190v190q0 7 -4 11t-11 4t-11 -4t-4 -11v-190h-190q-6 0 -10 -4t-4 -10
q0 -7 4 -11t10 -4h190v-176q0 -6 4 -10t11 -4t11 4t4 10v176h190z" />
    <glyph glyph-name="uniE91C" unicode="&#xe91c;" horiz-adv-x="1126" 
d="M1107 853q-2 2 -4.5 3.5t-5.5 1.5h-190v73q0 6 -4 10t-11 4q-6 0 -10 -4t-4 -10v-73h-629v73q0 6 -4 10t-11 4t-11 -4t-4 -10v-73h-190q-6 0 -10 -4t-4 -11v-878q0 -3 1 -5.5t3 -4.5t4.5 -3t5.5 -1h1068q7 0 11 4t4 10v878q0 3 -1 5.5t-4 4.5v0zM219 828v-58q0 -7 4 -11
t11 -4t11 4t4 11v58h629v-58q0 -7 4 -11t10 -4q7 0 11 4t4 11v58h176v-175h-1039v175h175v0zM44 -20v658h1039v-658h-1039v0zM965 126h44v-44h-44v44zM819 126h44v-44h-44v44zM673 126h44v-44h-44v44zM249 492h73v73h-73v-73v0zM263 550h44v-43h-44v43zM380 492h73v73h-73
v-73v0zM395 550h44v-43h-44v43zM527 492h73v73h-73v-73v0zM541 550h44v-43h-44v43zM658 492h73v73h-73v-73v0zM673 550h44v-43h-44v43zM805 492h73v73h-73v-73v0zM819 550h44v-43h-44v43zM951 492h73v73h-73v-73v0zM965 550h44v-43h-44v43zM249 346h73v73h-73v-73zM263 404
h44v-44h-44v44zM380 346h73v73h-73v-73v0zM395 404h44v-44h-44v44zM527 346h73v73h-73v-73zM541 404h44v-44h-44v44zM658 346h73v73h-73v-73zM673 404h44v-44h-44v44zM805 346h73v73h-73v-73zM819 404h44v-44h-44v44zM951 346h73v73h-73v-73zM965 404h44v-44h-44v44z
M249 199h73v73h-73v-73zM263 258h44v-44h-44v44zM102 346h74v73h-74v-73zM117 404h44v-44h-44v44zM102 199h74v73h-74v-73zM117 258h44v-44h-44v44zM380 199h73v73h-73v-73v0zM395 258h44v-44h-44v44zM527 199h73v73h-73v-73zM541 258h44v-44h-44v44zM249 68h73v73h-73v-73z
M263 126h44v-44h-44v44zM102 68h74v73h-74v-73zM117 126h44v-44h-44v44zM380 68h73v73h-73v-73v0zM395 126h44v-44h-44v44zM527 68h73v73h-73v-73zM541 126h44v-44h-44v44zM658 199h73v73h-73v-73zM673 258h44v-44h-44v44zM805 199h73v73h-73v-73zM819 258h44v-44h-44v44z
M951 199h73v73h-73v-73zM965 258h44v-44h-44v44zM117 550h44v-43h-44v43z" />
    <glyph glyph-name="uniE91D" unicode="&#xe91d;" horiz-adv-x="1574" 
d="M932 -54h-293q-6 0 -18 9t-36 29q-5 5 -10 8.5t-9 7.5q-1 1 -2 2.5t-1 3.5v263l-4.5 66t-6.5 80l-5 13q-29 -8 -106 -31q-78 -24 -160.5 -48t-146.5 -43t-66 -19q-2 -1 -5 0.5t-4 4.5l-14 33l-26 16q-1 1 -2 1.5t-1 1.5l-8 17q-1 4 0 6.5t3 4.5l15 7t39 20v0v0l509 241
l109 35v6v10l-6 33q-37 103 -8 150t46 58q4 2 19.5 10.5t48.5 8.5q36 0 54 -9.5t19 -9.5l40 -51.5t-2 -157.5q-1 -4 -3 -15t-2 -17v-9.5v-6.5l111 -35l508 -242q26 -12 40.5 -19.5l14.5 -7.5q2 -1 4 -4.5t-1 -6.5l-8 -18q0 -1 -1 -2t-2 -1l-25 -16l-14 -33l-4 -4t-6 -1
q-1 1 -66 20q-64 19 -146.5 44t-161.5 48q-78 24 -106 33l-3 -12q-3 -14 -11 -70t-8 -79q0 -64 1.5 -139t1.5 -76v-48q0 -2 -1 -3.5t-2 -2.5l-69 -52q0 -2 -1 -2h-2v0zM579 9q3 -3 7.5 -6.5t9.5 -7.5q11 -9 26 -20.5t19 -12.5h288l62 47v43q0 1 -1.5 76.5t-1.5 139.5
q0 24 7.5 80.5t11.5 71.5l4 19q0 1 1 2.5t3 2.5q1 1 3 1t3 -1t68 -21t151.5 -45.5t162.5 -48.5t100 -29l13 30q0 1 1 2t2 1l27 16l3 8q-7 3 -19 9t-29 14l-505 243l-116 36q-2 2 -3.5 3t-1.5 4q-1 6 -1 9v13q0 8 2.5 21t3.5 15q39 98 5 144t-37 48l-15.5 8t-47.5 8
q-31 0 -44 -8l-13 -8h-1t-1 -1q-14 -10 -40 -52t8 -139l7 -35q0 -10 -0.5 -13.5t-1.5 -9.5q0 -3 -1.5 -4t-3.5 -3l-112 -34l-507 -241q-17 -9 -29.5 -15t-18.5 -9l3 -8l27 -16q1 -1 2 -1.5t1 -1.5l13 -30q22 6 99 29t160.5 48t150.5 44q67 20 69 20q3 1 5.5 -1t3.5 -4l7 -22
q3 -17 7 -81.5t5 -67.5l-1 -259v0zM927 -5h-274q-1 0 -1.5 0.5l-1.5 1.5l-81 62q-1 1 -2 3t1 3q1 1 3 2t3 0l79 -61h271l75 57q1 2 3 1.5t3 -2.5q1 -1 1 -3t-2 -4l-77 -58q3 0 2.5 -1t-2.5 -1v0zM786 675q-15 0 -28 0.5t-22 2.5q-5 2 -26 17.5t-28 38.5q-1 2 0 3.5t3 2.5
t3.5 0t2.5 -3q7 -20 25.5 -34t22.5 -15q8 -2 20.5 -2.5t26.5 -0.5q16 0 28.5 0.5t19.5 2.5q5 1 25.5 18t26.5 36q0 2 2 3t5 0q2 0 2.5 -2t0.5 -4q-7 -23 -30.5 -42t-28.5 -19q-9 -2 -22 -2.5t-29 -0.5v0zM783 824q-24 0 -51.5 4t-56.5 12q-2 0 -2.5 2t-0.5 4q0 3 2 3.5
t5 0.5q85 -27 147.5 -13.5l62.5 13.5q3 1 4.5 0t2.5 -4q1 -2 0 -3.5t-3 -2.5l-30.5 -8t-79.5 -8v0zM894 514v0v0q-13 0 -21.5 -9.5t-8.5 -22.5v-27h14v27q0 7 4.5 11.5t11.5 4.5v0q7 0 11.5 -4.5t4.5 -11.5v-27h14v27q1 13 -8 22.5t-22 9.5v0zM894 534v0q-7 0 -12 5t-5 13
q0 7 5 12t12 5t12.5 -5t5.5 -12q0 -8 -5.5 -13t-12.5 -5zM932 579l-11 9l-9 -9q-4 2 -8.5 3t-7.5 1q-13 0 -22.5 -9t-9.5 -22t9.5 -22.5t22.5 -9.5v0q13 0 22 9.5t9 22.5q0 4 -1 8t-3 7l9 12v0zM790 0q-3 0 -4 1t-1 4l-2 388h-149h-0.5h-0.5l-78 38q-1 1 -2 2.5t-1 2.5l5 89
l-501 -199q-3 -1 -4.5 0t-2.5 4q-1 2 0 3.5t3 2.5l508 201h2h2q2 -1 2 -2v-2l-5 -94l75 -36h147v277q0 2 1.5 3.5t3.5 1.5t3.5 -1.5t1.5 -3.5v-277h149l65 34l1 92q0 2 0.5 3t1.5 1q1 1 2.5 1.5t3.5 -0.5l507 -201q3 -1 3.5 -2.5t0.5 -4.5q-2 -2 -3 -2.5t-4 -0.5l-504 200
l-1 -89q0 -1 -1 -2t-3 -2l-68 -37h-0.5h-0.5h-149l1 -388q0 -3 -1 -4t-3 -1v0v0v0z" />
    <glyph glyph-name="uniE91E" unicode="&#xe91e;" horiz-adv-x="2399" 
d="M1069 565v-1v1v-1v1zM1028 528q8 20 0 38.5t-27 26.5q-19 9 -38.5 0t-27.5 -28q-7 -19 1.5 -38t26.5 -26q20 -7 38.5 1t26.5 26zM995 637q7 -1 13.5 -3.5t13.5 -5.5q9 -4 16.5 -10.5t14.5 -14.5q1 -1 1 -0.5t1 0.5q8 3 16.5 6.5t16.5 8.5l0.5 0.5t2.5 0.5
q4 -10 8.5 -19.5t8.5 -19.5l-1 -1t-2 -1l-32 -14v-2q1 -9 1 -18t-2 -18q-5 -18 -15.5 -32t-27.5 -24q-14 -9 -29 -11.5t-31 -0.5q-8 1 -14.5 3.5t-13.5 6.5q-11 6 -19 13.5t-14 17.5q-9 16 -12 31.5t0 33.5q1 6 3 11.5t4 11.5q7 13 17 23t23 16q12 8 25.5 10.5t26.5 0.5v0z
M946 444q16 -8 27.5 -20t17.5 -29q4 -12 5 -24t-2 -25q-1 -5 -2.5 -9.5t-3.5 -8.5q-6 -16 -13 -33.5t-13 -33.5q0 -1 -0.5 -1.5l-1.5 -1.5l-20 8t-21 8q0 1 0.5 1.5l1.5 1.5q6 17 13.5 35t14.5 37q3 8 3 18t-5 20q-2 6 -7 10.5t-10 8.5q-8 4 -16 5t-17 -1q-8 -2 -14.5 -7.5
t-11.5 -13.5q-2 -3 -3.5 -7t-3.5 -9q-7 -15 -12.5 -31t-12.5 -32v-1l-2 -1q-9 4 -19.5 7.5t-20.5 8.5v1l1 2q8 19 15.5 38t15.5 39q4 10 10.5 18.5t15.5 15.5q14 11 29 13.5t34 -0.5q9 -1 15.5 -3t12.5 -4v0zM1617 78q-3 0 -5 2t-2 5q0 4 2 6t5 2q32 1 61.5 3.5t33.5 3.5
q2 1 5 0.5t6 -3.5q1 -2 0.5 -5.5t-3.5 -4.5q-6 -3 -38.5 -5.5t-64.5 -3.5v0v0v0zM1484 78h-111q-3 0 -5 2t-2 5q0 4 2 6t5 2h111q3 0 5 -2t2 -6q0 -3 -2 -5t-5 -2zM1221 78h-119q-3 0 -5 2t-2 5q0 4 2 6t5 2h119q3 0 5 -2t2 -6q0 -3 -2 -5t-5 -2zM947 78h-148q-3 0 -5 2
t-2 5q0 4 2 6t5 2h148q3 0 5.5 -2t2.5 -6q0 -3 -2.5 -5t-5.5 -2zM653 78h-148q-3 0 -5 2t-2 5q0 4 2 6t5 2h148q3 0 5 -2t2 -6q0 -3 -2 -5t-5 -2zM350 91h-0.5h-0.5l-187 42q-4 2 -5 4t-1 5q1 4 3 5t6 1l187 -42q3 -1 4.5 -3.5t1.5 -5.5q-1 -2 -3 -4t-5 -2v0zM1831 110
q-4 0 -6 2t-2 5q0 4 2 6t6 2q4 1 33.5 8t52.5 14q3 1 5.5 -1t3.5 -5t-1 -5.5t-5 -3.5q-29 -8 -57.5 -15t-31.5 -7v0zM1477 155q-58 2 -119 5t-126 10q-1 0 -2 1l-2 2h-3h-3q-3 0 -6.5 0.5t-6.5 0.5v0v0l-54 5q-71 5 -133.5 5t-140.5 -1h-14q-49 -1 -105.5 -1h-125.5
q-3 -1 -5 -1t-4 1h-11.5h-10.5q-105 0 -197 7q-92 6 -160 13t-107 13q-40 6 -41 6q-3 0 -5 3t-1 6q0 3 3 5t6 1q1 0 40 -6t107 -13.5t159 -13.5t196 -7h4h5l-15 16q-12 13 -25.5 21t-19.5 12q-1 1 -2.5 1t-2.5 2l-83 33q-93 35 -161 72q-69 36 -114 65.5t-68 48.5
q-22 18 -23 19q-2 2 -2 5t2 5t5 2t5 -2q1 0 23 -19t66.5 -48t111.5 -64q68 -36 159 -71l85 -33q1 0 1.5 -1t1.5 -1h1t2 -1q7 -5 21 -13.5t27 -21.5l24 -27q70 0 127 0.5t107 1.5h14q78 1 140.5 1t134.5 -6l46 -4l-6 56q0 1 2 21.5t18 41.5l189 238q2 3 13.5 15t39.5 14
q1 1 2 1.5t2 0.5h5q1 0 2 0.5t2 0.5l-471 190q-1 0 -14.5 4t-41.5 -5l-33 -11q-27 -8 -57.5 -17.5t-54.5 -17.5q-25 -8 -27 -8q-4 -1 -6 0.5t-3 3.5t0.5 5t3.5 4q1 0 25 8q25 7 55.5 16.5t58.5 18.5q27 9 34 11q32 11 48.5 6.5t17.5 -4.5l487 -196q5 2 8.5 3t4.5 2
q1 3 3 3.5t6 -0.5q3 -1 4.5 -3t1.5 -5q0 -2 -1.5 -4t-6.5 -5l9 -5q3 -1 4.5 -4t-0.5 -6q-1 -3 -3.5 -4t-6.5 0l-23 8q-5 -1 -9.5 -2.5t-9.5 -2.5q-1 -1 -2.5 -2t-3.5 -1q-30 0 -40 -10.5t-10 -11.5v-1t-1 -1l-16 -20l-173 -218q-14 -17 -15.5 -34.5t-1.5 -18.5l7 -58h3.5
h2.5q3 0 6.5 -1t6.5 -1q1 0 2 -0.5t2 -0.5q64 -7 123 -10.5t116 -4.5h92q50 1 97 4.5t92 10.5q1 0 49 8q49 8 129 28t184 55t215 89q3 1 5.5 0t5.5 -3q1 -2 0 -5t-3 -5q-112 -54 -217 -89q-104 -35 -185 -55t-130 -28t-51 -8q-46 -7 -93 -10.5t-98 -4.5h-95v1zM2021 163
q-3 0 -5 2t-2 5t2 5t5 2q3 1 27 8t49 14q3 1 5.5 -0.5t3.5 -3.5q1 -3 -0.5 -5.5t-4.5 -3.5q-37 -12 -57.5 -17.5t-22.5 -5.5v0zM381 682v0v0q-23 1 -56.5 4t-54.5 5q-9 1 -14 1h-7h-0.5h-0.5q-1 0 -23.5 10.5t-37.5 32.5q-3 2 -2 5t3 5t5 1.5t5 -3.5q11 -17 29.5 -26
t23.5 -10q2 0 7.5 -1t12.5 -1q22 -2 55 -4t57 -4q3 0 5 -2.5t2 -5.5q-1 -3 -3.5 -5t-5.5 -2v0zM1431 -38q-29 0 -55.5 0.5t-36.5 2.5h-71q-13 -1 -56 -1h-93t-89 1h-43l-224 5l-75 5l-221 -1l-80 4v0v0q-9 0 -75 16t-106 25q-131 32 -154 41.5t-25 17.5q-3 10 -1.5 20.5
t7.5 18.5l0.5 1l0.5 1q10 11 18.5 22.5t8.5 15.5q-6 28 0 44.5t13 24.5q0 80 8 149q7 70 17 127t21 101q12 43 21 72q22 68 55 128.5t65 62.5q41 1 68.5 -26.5t39.5 -79.5q3 -10 5 -19.5t3 -16.5q1 -4 2 -7.5t1 -6.5q15 -4 48 -11t72.5 -12.5t78.5 -7.5q39 -1 65 7
q26 9 69.5 27t94.5 41l78 156q0 1 0.5 1.5t0.5 1.5q2 3 6 8t12 10h0.5t0.5 1q10 3 20 2t21 -6q12 -7 46.5 -30t66.5 -45l420 -244l33 -7l199 -41l436 -97q10 7 39 7t102 -26q23 -9 39 -31t24 -57q6 -4 10 -11t4 -12q2 -24 -13.5 -73.5t-41.5 -65.5v0q-11 -6 -50 -25
q-39 -18 -84.5 -38.5t-87.5 -38.5q-41 -17 -55 -21l-57 -20q-5 -4 -18 -7.5t-38 -10.5q-19 -5 -43 -11t-41 -8l-84 -22q-32 -10 -87.5 -15t-58.5 -5l-89 -6q-6 -2 -31.5 -3.5t-55.5 -1.5v0zM1266 -5h73h1h1q17 -3 89.5 -3t90.5 3l36 2q-3 2 -6 5t-4 7l-9 76q-1 6 3 10.5
t10 5.5q7 1 11 -2.5t5 -10.5l9 -76q0 -4 -2 -8t-5 -7l42 3q1 0 55.5 5.5t85.5 15.5l29 7q0 1 -0.5 1.5t-0.5 1.5l-21 64q-2 6 1 11.5t9 7.5q6 3 11.5 0t7.5 -10l21 -64q0 -1 0.5 -2t-0.5 -3l29 8h1.5h1.5q26 2 73 15.5t57 17.5q1 0 1.5 1t1.5 1l12 4v0.5v1.5l-21 64
q-2 6 1 11.5t8 7.5q6 2 11.5 -0.5t7.5 -8.5l21 -64l20 7h1h1q13 4 47.5 18.5t74.5 33.5l-24 57q-3 5 -1 10.5t8 8.5q5 2 11 0t8 -8l25 -57q44 20 79 37t39 19v0v0q17 10 30 51t11 60q0 1 -0.5 1.5t-0.5 1.5q-5 1 -8 4t-4 8q-7 30 -18 49t-29 25q-60 22 -85 23t-27 -1
q-3 -4 -7 -5.5t-9 -0.5l-445 98l-236 49q-1 0 -2 0.5t-2 0.5l-423 246q-65 44 -86 57.5t-24 15.5q-5 3 -9 3.5t-8 -0.5q-2 -1 -3.5 -3t-2.5 -3v-0.5t-1 -0.5l-81 -160q-1 -2 -3 -4t-4 -3q-54 -24 -99 -43t-72 -27q-32 -10 -76 -9q-45 2 -88 8t-78 14t-48 11q-3 2 -5.5 4
t-3.5 4t-2.5 7t-4.5 19q-1 7 -3 16t-4 19q-10 43 -30 64t-49 20q-12 -1 -39 -44q-26 -43 -53 -123t-47 -194q-21 -114 -21 -257q0 -3 -2 -6t-4 -5l-5.5 -10.5t-1.5 -35.5q3 -14 -10 -32t-24 -29q-1 -2 -2 -4.5t-1 -4.5q16 -6 67 -19q51 -14 107.5 -27.5t103.5 -24.5
q48 -10 56 -11l26 -1q0 1 -0.5 2t0.5 3l5 77q0 6 4.5 10t11.5 3q6 0 10 -5t3 -11l-4 -76q0 -2 -0.5 -3t-1.5 -2l25 -1l221 1l17 -1q-1 2 -1 4v4l4 77q0 6 5 10t11 3q7 0 11 -5t3 -11l-5 -76q0 -3 -1 -5l-2 -4l32 -3l223 -5q26 0 70 -1h86.5h78.5q34 0 43 1q2 -2 3 -2h1v0z
M1974 63v0v0zM55 87v-1v1v-1v1zM2343 332v0v0v0v0zM2344 332v0v0v0v0zM1303 -4q-7 0 -11 4t-4 11v76q0 6 4 10t11 4q6 0 10 -4t4 -10v-76q0 -7 -4 -11t-10 -4zM1025 -4q-7 0 -11 4t-4 11v76q0 6 4 10t11 4q6 0 10 -4t4 -10v-76q0 -7 -4 -11t-10 -4zM1518 155q-2 0 -5 2t-3 4
l-33 267q0 45 16 100.5t17 58.5t4 4t5 0q3 -1 4.5 -3.5t0.5 -4.5l-6.5 -19t-12.5 -44q51 -10 109.5 -21.5t62.5 -12.5q3 0 24.5 -21.5t138.5 -152.5l0.5 -1l0.5 -1q1 -1 17 -18t53 -6q22 6 87 27q64 21 133.5 44.5t124.5 42.5q55 18 56 19q3 1 5.5 -0.5t3.5 -4.5t-0.5 -5
t-4.5 -3q-5 -2 -60 -21q-56 -19 -124.5 -42t-131.5 -44q-64 -21 -86 -27q-43 -12 -63.5 7.5t-22.5 25.5q-43 47 -94.5 103.5t-60.5 64.5q-13 2 -70 13.5t-103 20.5l-8 -40t-4 -37l34 -264q2 -5 0.5 -8t-4.5 -3v0v0v0z" />
    <glyph glyph-name="uniE91F" unicode="&#xe91f;" 
d="M2 -64l72 263q-33 58 -50 122.5t-17 131.5q0 105 40 197t108.5 161t161.5 109q92 40 197 40q51 0 100 -10t94.5 -28.5t87.5 -46.5q41 -28 77 -64t64 -77q27 -42 46 -87.5t29 -94.5t10 -100q0 -105 -40 -197q-40 -93 -109 -161.5t-162 -108.5q-92 -40 -197 -40
q-64 0 -125.5 15.5t-117.5 46.5l-269 -71v0zM284 98q54 -31 108 -49t122 -18q87 0 164 33t134 90t91 134q33 77 33 164q0 88 -33 165q-33 76 -90.5 133.5t-133.5 90.5q-77 33 -165 33q-87 0 -164 -33t-134 -90.5t-90 -133.5q-34 -77 -34 -164q0 -72 20 -128.5t55 -112.5
l-43 -155l160 41v0zM770 332q-3 4 -9 7t-16 7q-9 5 -43 21.5t-43 20.5q-9 3 -15.5 3t-13.5 -10q-6 -9 -20 -26t-20 -23q-5 -7 -11.5 -7.5t-15.5 3.5q-10 5 -38 18t-64 45q-29 26 -47 52.5t-24 35.5q-5 10 -2 15.5t8 10.5q4 4 9 10.5t10 11.5q5 6 7 10.5t5 10.5q4 7 3 12.5
t-4 10.5q-2 4 -16.5 39.5t-22.5 54.5q-7 18 -14.5 19.5t-13.5 2.5h-25q-6 0 -15.5 -3t-17.5 -13q-9 -9 -27 -34t-18 -72t23.5 -86t28.5 -45q2 -3 19 -26q16 -22 44 -52t67 -61q39 -32 87 -52q22 -10 40 -16.5t32 -10.5q23 -7 43 -7t37 2q18 3 47.5 20.5t37.5 39.5t9 39.5
t-1 21.5v0z" />
    <glyph glyph-name="uniE920" unicode="&#xe920;" 
d="M405 491q0 -9 -6 -15t-15 -6t-15 6t-6 15v0v148q0 61 43 104.5t105 43.5v0q61 0 104.5 -43.5t43.5 -104.5v-148q0 -9 -6.5 -15.5t-15.5 -6.5q-8 0 -14.5 6.5t-6.5 15.5v0v148q0 43 -31 74t-74 31q-44 0 -75 -31t-31 -74v0v-148v0zM320 576q-9 0 -15 -6t-6 -15v0v-384
q0 -9 6 -15.5t15 -6.5v0h384q9 0 15 6.5t6 15.5v0v384q0 9 -6 15t-15 6v0h-384zM320 619h384q27 0 45.5 -19t18.5 -45v0v-384q0 -27 -18.5 -45.5t-45.5 -18.5v0h-384q-27 0 -45.5 18.5t-18.5 45.5v0v384q0 26 18.5 45t45.5 19v0z" />
    <glyph glyph-name="uniE921" unicode="&#xe921;" 
d="M512 299q9 0 15 -6.5t6 -15.5t-6 -15t-15 -6v0q-9 0 -15 6t-6 15t6 15.5t15 6.5v0zM532 341h-42q0 11 0.5 19t2.5 15q2 9 4.5 16.5t6.5 14.5v0q4 8 9 15t11 13v0q6 6 13 12.5t16 13.5q2 2 5.5 4.5t8.5 6.5q4 2 8 5.5t8 8.5q4 3 7.5 8t6.5 11q2 5 3.5 10.5t1.5 12.5v0v1
q0 5 -1.5 9.5t-3.5 8.5v0q-3 5 -6.5 8.5t-8.5 6.5v0q-5 4 -11.5 6.5t-12.5 4.5h-1q-8 2 -16.5 3t-17.5 1h-0.5h-0.5v0q-12 0 -22.5 -1.5t-19.5 -4.5t-16 -7.5t-13 -9.5v0q-5 -5 -9 -11.5t-6 -13.5q-3 -7 -4 -14.5t-1 -14.5v-3.5v-2.5v0l-43 -2v4v4q0 11 2 22t6 22l-1 -1
q5 12 11.5 22.5t15.5 18.5q9 9 19.5 15.5t22.5 10.5l1 1q13 4 27 6.5t30 2.5q12 0 23.5 -1.5t21.5 -4.5q11 -2 21 -6.5t18 -9.5q9 -6 16 -13.5t12 -15.5q5 -10 7.5 -20t2.5 -21q0 -12 -2.5 -22.5t-7.5 -20.5q-4 -8 -9 -15.5t-12 -13.5v0q-5 -6 -10.5 -11t-11.5 -8
q-4 -3 -7 -5t-4 -4q-7 -6 -13.5 -11.5t-11.5 -10.5q-4 -5 -7.5 -10t-6.5 -9q-2 -4 -3.5 -9t-3.5 -10v-1q-1 -4 -1.5 -9.5t-0.5 -11.5v-2t1 -2v0h-1zM512 128q66 0 125 25q58 25 101.5 68.5t68.5 101.5q25 59 25 125t-25 125q-25 58 -68.5 101.5t-101.5 68.5q-59 25 -125 25
v0q-66 0 -125 -25q-58 -25 -101.5 -68.5t-68.5 -101.5q-25 -59 -25 -125t25 -125q25 -58 68.5 -101.5t101.5 -68.5q59 -25 125 -25v0zM512 85q-75 0 -141 29q-66 28 -115.5 77.5t-77.5 115.5q-29 66 -29 141t29 141q28 66 77.5 115.5t115.5 77.5q66 29 141 29v0
q75 0 141 -29q66 -28 115.5 -77.5t77.5 -115.5q29 -66 29 -141t-29 -141q-28 -66 -77.5 -115.5t-115.5 -77.5q-66 -29 -141 -29v0v0z" />
    <glyph glyph-name="uniE922" unicode="&#xe922;" 
d="M832 509q0 -44 -11.5 -86.5t-34.5 -80.5l-257 -341q-3 -4 -7.5 -6t-9.5 -2t-9.5 2t-7.5 6v0l-256 339q-22 36 -34.5 79t-12.5 89v0.5v0.5v0q0 67 25 126q25 58 68.5 102t101.5 70q59 25 125 25t125 -25q58 -26 101.5 -70t68.5 -102q25 -59 25 -126v0zM750 365
q19 31 29 67.5t10 75.5v1v0v0q0 58 -21 109q-22 51 -60 89t-88 60q-51 22 -108 22t-108 -22q-50 -22 -88 -60t-60 -89q-21 -51 -21 -109v-0.5v-0.5q0 -40 10.5 -76.5t29.5 -68.5l-1 1l238 -314l238 315v0zM512 392q49 0 83 34.5t34 82.5q0 49 -34 83.5t-83 34.5v0
q-49 0 -83 -34.5t-34 -83.5q0 -48 34 -82.5t83 -34.5v0zM512 349q-66 0 -113 47t-47 113q0 67 47 113.5t113 46.5v0q66 0 113 -46.5t47 -113.5q0 -66 -47 -113t-113 -47v0z" />
    <glyph glyph-name="uniE923" unicode="&#xe923;" 
d="M668 262q-3 3 -5 7t-2 8q0 9 6.5 15.5t15.5 6.5q4 0 8 -2t7 -5l132 -132q3 -3 4.5 -7t1.5 -8q0 -9 -6 -15t-15 -6q-4 0 -8 1.5t-7 4.5l-132 132v0zM488 176q-61 0 -115 24q-54 23 -94.5 63t-63.5 94t-23 115t23 115t63.5 94.5t94.5 63.5t115 23v0q61 0 115 -23t94 -63.5
t63 -94.5q24 -54 24 -115t-24 -115q-23 -54 -63 -94t-94 -63q-54 -24 -115 -24v0v0zM488 219q52 0 98 20t80.5 54.5t54.5 80.5t20 98q0 53 -20 99t-54.5 80.5t-80.5 53.5q-46 20 -98 20v0q-53 0 -99 -20q-46 -19 -80.5 -53.5t-53.5 -80.5q-20 -46 -20 -99q0 -52 20 -98
q19 -46 53.5 -80.5t80.5 -54.5t99 -20v0z" />
    <glyph glyph-name="uniE924" unicode="&#xe924;" 
d="M512 149q62 0 116 24q55 23 95.5 63.5t63.5 95.5q24 54 24 116t-24 116q-23 55 -63.5 95.5t-95.5 63.5q-54 24 -116 24v0q-62 0 -116 -24q-55 -23 -95.5 -63.5t-63.5 -95.5q-24 -54 -24 -116t24 -116q23 -55 63.5 -95.5t95.5 -63.5q54 -24 116 -24v0v0zM512 107
q-71 0 -133 26q-62 27 -108.5 73.5t-73.5 108.5q-26 62 -26 133t26 133q27 62 73.5 108.5t108.5 73.5q62 26 133 26v0q71 0 133 -26q62 -27 108.5 -73.5t73.5 -108.5q26 -62 26 -133t-26 -133q-27 -62 -73.5 -108.5t-108.5 -73.5q-62 -26 -133 -26v0zM512 341
q44 0 75.5 31.5t31.5 75.5t-31.5 75.5t-75.5 31.5v0q-44 0 -75.5 -31.5t-31.5 -75.5t31.5 -75.5t75.5 -31.5v0zM512 299q-62 0 -105.5 43.5t-43.5 105.5t43.5 105.5t105.5 43.5v0q62 0 105.5 -43.5t43.5 -105.5t-43.5 -105.5t-105.5 -43.5v0zM235 469q9 0 15 -6t6 -15
t-6 -15t-15 -6v0h-128q-9 0 -15.5 6t-6.5 15t6.5 15t15.5 6v0h128v0zM491 171q0 9 6 15t15 6t15 -6t6 -15v0v-128q0 -9 -6 -15.5t-15 -6.5t-15 6.5t-6 15.5v0v128v0zM917 469q9 0 15.5 -6t6.5 -15t-6.5 -15t-15.5 -6v0h-128q-9 0 -15 6t-6 15t6 15t15 6v0h128v0zM491 832
q0 9 6 15t15 6t15 -6t6 -15v0v-128q0 -9 -6 -15t-15 -6t-15 6t-6 15v0v128v0z" />
    <glyph glyph-name="uniE925" unicode="&#xe925;" 
d="M512 448q-62 0 -105.5 50t-43.5 121q0 70 43.5 120t105.5 50t105.5 -50t43.5 -120q0 -71 -43.5 -121t-105.5 -50zM512 491q44 0 75.5 37t31.5 91q0 53 -31.5 90.5t-75.5 37.5t-75.5 -37.5t-31.5 -90.5q0 -54 31.5 -91t75.5 -37zM761 107h-498q-45 0 -73 33.5t-16 74.5
q15 49 44 85q30 35 73 58.5t99 35.5q55 11 122 11t122 -11q56 -12 99 -35.5t73 -58.5q30 -36 44 -85q12 -41 -16 -74.5t-73 -33.5v0zM761 149q25 0 39.5 17t8.5 37q-12 41 -37 71q-26 30 -63.5 49.5t-86.5 29.5q-50 10 -110 10t-110 -10q-49 -10 -86.5 -29.5t-63.5 -49.5
q-25 -30 -37 -71q-6 -20 8.5 -37t39.5 -17h498v0z" />
    <glyph glyph-name="uniE926" unicode="&#xe926;" 
d="M710 447l-401 401l73 73l438 -437q15 -15 15 -36.5t-15 -36.5l-438 -438l-73 73l401 401v0z" />
    <glyph glyph-name="uniE927" unicode="&#xe927;" 
d="M341 533h342v64q0 71 -50 121t-121 50t-121 -50t-50 -121v-64v0zM277 491v-299q0 -17 6.5 -32.5t18.5 -27.5t28 -18.5t33 -6.5h298q17 0 33 6.5t28 18.5t18.5 27.5t6.5 32.5v299h-470v0zM299 533v64q0 45 16 83q17 39 46 68t68 46t83 17t83 -17t68 -46t46 -68
q16 -38 16 -83v-64h22q17 0 29.5 -12.5t12.5 -29.5v-299q0 -25 -9.5 -49t-27.5 -42t-41.5 -27.5t-49.5 -9.5h-298q-26 0 -49.5 9.5t-41.5 27.5t-27.5 42t-9.5 49v299q0 17 12.5 29.5t29.5 12.5h22v0z" />
    <glyph glyph-name="uniE928" unicode="&#xe928;" 
d="M1014 131h-10q-73 0 -124.5 52.5t-88.5 130.5q72 54 123 104.5t56 55.5q3 3 3 7t-3 7t-7.5 3t-7.5 -3q0 -1 -50.5 -50t-122.5 -105q-27 59 -48 125t-40 128q-30 102 -56.5 169.5t-65.5 72.5q-19 2 -38.5 -13t-40.5 -49h-19q-3 0 -5.5 -1t-3.5 -4l-18 -29q0 -2 -0.5 -4
t-0.5 -5q1 -2 2.5 -3.5t3.5 -2.5q0 -2 0.5 -3.5t1.5 -3.5q0 -8 -3.5 -21.5t-12.5 -19.5q-4 -2 -9.5 -1t-12.5 6q-27 19 -42.5 25l-15.5 6h-1h-2h-19l-3 3l-2 2q6 -1 13 0t13 7q13 13 18.5 42.5t-4.5 56.5q-7 20 -22.5 31t-35.5 14q-3 0 -16 -0.5t-26 -11.5l-1.5 -1t-2.5 -3
q-1 1 -2.5 1h-3.5q-3 0 -7.5 0.5t-9.5 2.5q-6 3 -15 0t-14 -6q-8 -4 -13.5 -11t-6.5 -15q-4 -17 9 -49t17 -39q2 -3 4 -5t5 -2h0.5h0.5q3 1 6 3.5t4 5.5l7 35q1 -16 6 -27t8 -16q-1 -2 -3.5 -4.5t-6.5 -5.5q-66 -24 -73 -52.5t-6 -35.5q0 -3 0.5 -5.5t0.5 -5.5v-10.5v-12.5
q-1 -38 -14.5 -54t-28.5 -27q-15 -10 -27 -23t-12 -39q-1 -48 18 -74.5t31 -36.5q-11 -20 -20.5 -55t-9.5 -43q-1 -7 -8.5 -32.5t-14.5 -46.5q-3 -6 -6 -14t-5 -15h-67q-4 0 -7 -3t-3 -8q0 -4 3 -7t7 -3h1004q4 0 7 3t3 7q0 5 -3 8t-7 3v0zM237 828l-12 -62q-5 14 -9 27
t-2 19q1 8 10 12t13 4v0v0v0v0v0zM569 806q29 -3 54 -72t51 -155q19 -64 40.5 -131t49.5 -128q-58 -43 -119 -75.5t-110 -32.5q-32 0 -57.5 6t-45.5 15l3 13q4 19 9.5 39t10.5 38l6 24t5 21q9 37 -63.5 66t-116.5 42q10 17 23 34t22 21q1 1 3 1.5t4 1.5q19 8 31 24t2 64
q8 -5 20.5 -10t29.5 -10q12 -4 21.5 -6.5t17.5 -2.5q4 0 8 1t7 2q9 4 12 12t7 17l1 4q5 16 6 37t1 33q1 1 2 1.5t2 1.5q11 8 13 26.5t2 25.5q0 3 -1.5 5.5t-3.5 2.5q15 24 29 35t24 9v0zM180 135l-9 5l-15 20q-1 1 -2 2.5l-1 1.5q3 15 17 41t24 36q12 12 36.5 52t27.5 62
q1 6 -0.5 12.5t-4.5 11.5q3 -3 6 -6.5t7 -8.5l13 -54q0 -2 1 -4t3 -2l30 -22q2 -1 3.5 -1.5t2.5 -0.5q2 0 3.5 0.5t3.5 1.5q2 2 3 5t0 6t-2 5t-1 5q5 -10 14.5 -23t23.5 -27v-9v-11.5v-10.5v-12.5v-10.5q-5 -6 -9 -17.5t-6 -26.5q-1 -1 -1 -2v-2v0v0q-1 -2 -2 -4.5t0 -5.5
q1 -4 5.5 -7t9.5 -4h-177q0 2 -1.5 3t-2.5 2v0zM366 283q-12 13 -18.5 24t-8.5 17q2 0 4.5 1t3.5 3q2 2 2 5.5t-2 6.5l-2 3l-4 6l35 -2q-4 -10 -7 -26t-3 -38zM481 145l-4 -1v0v0q-1 0 -3 -0.5t-3 -0.5h-1h-1l-5 -2h-3h-4h-6h-5t-5 1h-0.5h-0.5h-5q-2 0 -9.5 0.5l-7.5 0.5
l-14 1l-6 1l-13 1l-6 1q-2 0 -4.5 1t-5.5 2v1.5t1 1.5q0 11 2.5 18.5t4.5 12.5q4 -2 9.5 -4t11.5 -2h2.5h1.5q4 0 7.5 2t6.5 4h1h1v0v0l26 -19q1 0 2 -0.5l1 -0.5l43 -13h1.5h1.5q-3 -2 -6.5 -3.5t-5.5 -2.5v0zM409 220q-2 -8 -2 -14.5v-11.5v-2t1 -2q-2 -1 -3.5 -1.5
t-3.5 -0.5q-4 -1 -9 0.5t-9 3.5q1 3 1 9.5v22.5v7.5v7.5q5 -4 11.5 -8t13.5 -8v-3zM385 264l1 17q3 45 8.5 54.5l5.5 9.5q4 0 6.5 3t2.5 7q-1 4 -3.5 6.5t-6.5 3.5l-74 5q-6 7 -11.5 13t-10.5 10t-14 23t-18 39q1 1 2 1.5t1 1.5q67 -17 121.5 -42.5t50.5 -42.5q-2 -9 -5 -20
t-6 -24q-4 -18 -9.5 -38.5t-9.5 -39.5l-3 -8q-8 5 -15 10t-13 11v0zM248 526q5 8 7.5 32.5t3.5 44.5q3 0 5.5 2t4.5 5q4 4 5.5 11.5t-1.5 16.5q-3 17 -10.5 30t-13.5 22q1 0 3 1l4 2q8 -13 18 -29t13 -22q3 -10 14.5 -19t23.5 -9h2t3 1q4 1 10 6.5t4 22.5q-1 13 -4 23t-7 18
h4q2 -7 5 -16t6 -16q-1 0 -1 -0.5t-1 -0.5q-1 -2 -1.5 -3.5t-0.5 -2.5v-0.5v-0.5v-0.5v-0.5v-1v-1q16 -55 8 -68t-22 -20q-3 0 -5 -1t-3 -2q-16 -6 -33.5 -31t-26.5 -40q-7 14 -11 28t-3 18zM479 745h21q-1 -9 -3 -16.5t-4 -10.5q-8 4 -13.5 7t-9.5 5zM404 656
q17 -12 29.5 -10.5t19.5 6.5q11 8 15.5 24t5.5 28q2 -1 3.5 -1.5t2.5 -1.5q0 -10 -0.5 -31t-5.5 -35v-3q-2 -7 -4 -11t-4 -5q-4 -2 -13.5 -0.5t-24.5 6.5q-36 12 -51 21.5l-15 9.5l-0.5 0.5t-1.5 0.5q-3 6 -6 14t-6 17h6q3 -2 16.5 -8.5t33.5 -20.5v0zM309 839h0.5h0.5
q16 -1 26 -9t15 -23q8 -21 3.5 -44.5t-12.5 -31.5q-2 -2 -4.5 -2t-8.5 1q-3 0 -5.5 0.5t-6.5 0.5q-8 0 -11 -4t-4 -6t-0.5 -7.5t9.5 -15.5q0 -1 0.5 -1.5t0.5 -1.5l8 -13t12 -39q1 -6 -0.5 -11.5t-5.5 -6.5q-7 -1 -18 5.5t-13 15.5q-3 8 -13.5 24.5t-18.5 28.5
q6 4 11.5 11.5t4.5 17.5q0 1 -1 2t-2 3l-5.5 10t-6.5 27q-1 23 3.5 39.5t14.5 24.5q10 6 18.5 5.5l8.5 -0.5v0zM240 685q5 -8 12.5 -21t11.5 -29q2 -7 1 -11.5t-3 -7.5q-1 -2 -2 -2.5t-3 -0.5q-2 1 -3.5 2.5t-3.5 1.5q-5 0 -7.5 -3t-2.5 -7q-1 -22 -3.5 -43.5t-5.5 -26.5
q-6 -9 -0.5 -29.5t14.5 -37.5q4 -10 18.5 -46t27.5 -47q6 -5 14 -14.5t14 -17.5q-2 -1 -4 -2.5t-3 -3.5q-4 -4 -5.5 -11t-1.5 -14l-8 5l-11 53q0 2 -1 3t-1 2q-28 30 -38 47t-18 34q-3 7 -7 15.5t-9 18.5q-11 21 -15 49.5t-4 48.5v10v11v6.5v2.5q0 2 -0.5 3t-1.5 2v1v1
q0 3 3 20.5t46 37.5v0zM179 531q3 -13 6.5 -25t9.5 -22q2 -5 4 -9.5t4 -8.5q-26 4 -38 15t-15 18q7 6 14.5 13t14.5 19v0zM162 331q2 2 3 4t1 5q0 4 -1.5 6t-3.5 3l-24.5 23t-23.5 76q0 18 8 27t20 17q6 -10 21 -22t46 -15q1 -1 1 -2t1 -2q4 -10 8 -19t11 -19q-3 2 -7 2
t-6 -3q-3 -3 -3 -7t3 -7q6 -6 14.5 -18t7.5 -21q-3 -18 -25.5 -54t-34.5 -48q-11 -12 -27 -41.5t-20 -49.5v0v0q-1 0 -1 -1.5v-2.5q-5 0 -9.5 1.5l-7.5 2.5q0 1 -0.5 2l-0.5 1q5 18 11.5 40t7.5 30q1 11 13 48.5t18 43.5zM103 145l1.5 1.5t0.5 2.5q0 1 0.5 1.5t0.5 1.5
l1.5 1.5l1.5 1.5q3 -1 8.5 -3t10.5 -2h2h2h1v0l1.5 -1.5t1.5 -0.5v0v0l15 -17h-53q2 4 3.5 7.5t1.5 6.5v0zM501 131q3 1 5 2l2 1q5 3 7 9t1 8v3t-1 2q-1 4 -3 7t-5 4q-4 2 -7 2.5t-5 0.5l-39 12l-25 17q-1 1 -2 1.5t-2 1.5q0 3 0.5 5t0.5 5q22 -9 48 -14.5t59 -5.5
q53 0 116.5 32.5t122.5 76.5q28 -57 63 -102t81 -68h-417v0z" />
    <glyph glyph-name="uniE929" unicode="&#xe929;" 
d="M638 466q-4 0 -7 2.5t-3 6.5q-1 2 1.5 18t19.5 99q1 4 4.5 6.5t8.5 2.5q3 -1 5.5 -4.5t2.5 -8.5q-8 -36 -14.5 -70t-7.5 -40q0 -4 -2 -7t-6 -5h-0.5h-1.5zM645 506h-1.5h-1.5q-21 7 -46.5 23.5t-27.5 16.5q-3 3 -3.5 7.5t1.5 7.5q3 3 7.5 3.5t7.5 -1.5l23.5 -16.5
t42.5 -20.5q4 -1 6.5 -5t0.5 -7q0 -4 -3 -6t-6 -2v0zM429 210q-1 0 -3 1t-3 1q-19 14 -11 35.5t10 25.5v0.5t1 0.5l36 47q-1 5 0.5 12.5t8.5 17.5q8 11 31 50.5t33 56.5q-12 9 -33 24t-25 18l-1 1q-30 23 -67.5 59.5t-33.5 68.5q5 39 31 60t36 24q3 1 30 8q28 7 69 8.5
t91 -9.5q49 -12 94 -48q1 -1 29.5 -32t11.5 -73q-7 -18 -14.5 -31t-13.5 -23q-7 -11 -12 -20t-6 -19q9 1 26 7t33 14q2 1 4 1t3 -1q17 -6 22 -20t-2 -35v-1q-3 -10 -10.5 -10.5t-10.5 0.5h-4.5h-3.5q-12 -8 -44 -13t-55 -7q-13 -1 -23 1.5t-16 9.5q-9 10 -8.5 19.5t0.5 10.5
q1 4 4 6.5t8 1.5q4 -1 6.5 -4t1.5 -8v-4.5t3 -7.5t8.5 -4t13.5 0q41 3 63 8t27 8q6 4 12 4t9 -1q3 11 2.5 17t-6.5 10q-49 -22 -62.5 -21.5t-17.5 2.5q-3 3 -4 6t-1 7q2 16 8 28.5t15 26.5q6 11 13 23t13 28q13 32 -10.5 57l-23.5 25q-43 33 -90 42q-47 10 -86 8.5t-65 -8.5
q-25 -6 -26 -6q-6 -2 -27.5 -20t-25.5 -48q-2 -17 23.5 -46.5t69.5 -61.5l1 -1q6 -4 36 -25.5l30 -21.5q3 -3 4 -7t-1 -7t-31 -53t-39 -64q-3 -6 -4.5 -9.5t-1.5 -4.5q2 -2 2 -5.5t-2 -6.5l-39 -50q-4 -7 -6.5 -18t2.5 -15q4 -2 4.5 -6.5t-2.5 -7.5q-1 -3 -3.5 -4.5
t-4.5 -1.5v0zM477 326v0v0v0v0zM477 326v0v0v0v0zM477 326v0v0v0v0zM758 464q-3 0 -4.5 1t-2.5 2q-10 11 -24 10l-14 -1q-4 -1 -8 1t-5 6q0 4 2 7.5t6 4.5l20.5 1.5t36.5 -15.5q3 -3 3 -7t-3 -8q-2 0 -4 -1t-3 -1zM757 507h-1.5h-0.5q-15 3 -19 17t-3 23q0 5 3.5 7.5
t7.5 2.5t7 -3.5t3 -8.5q0 -4 1 -10.5t5 -7.5t6.5 -5t0.5 -7q-1 -4 -3.5 -6t-6.5 -2v0zM799 484h-1.5t-0.5 1l-668 339q-2 1 -2.5 3t0.5 4t3 2.5t4 -0.5l668 -339q1 -1 2 -3t0 -4t-2.5 -2.5t-2.5 -0.5zM402 668h-1t-1 1l-275 139q-2 1 -2.5 3t0.5 5q1 2 3 2h4l274 -140
q2 0 2.5 -2t0.5 -5l-2 -2t-3 -1zM787 473h-1t-1 1l-64 32q-2 1 -2.5 3t0.5 5q1 1 3 1.5t4 0.5l65 -33q1 -1 1.5 -3t0.5 -4q-1 -2 -2.5 -2.5t-3.5 -0.5zM900 100h-1.5h-0.5l-850 208q-2 0 -3 2t-1 4q1 2 2.5 3t3.5 1l850 -208v0v0q2 0 14 2t22 15q1 2 3.5 2.5t3.5 -0.5
q2 -2 2.5 -4t-1.5 -4q-11 -14 -25 -17.5t-19 -3.5v0zM879 140h-1.5h-0.5l-304 75q-2 0 -3 1.5t-1 4.5q1 2 2.5 3t3.5 1l303 -75l13 2t23 15q2 2 4 2.5t4 -1.5q1 -1 1.5 -3t-0.5 -4q-11 -14 -25 -17.5t-19 -3.5zM421 253h-0.5h-0.5l-324 79q-2 0 -3.5 2t-0.5 4q1 3 2.5 4
t3.5 1l324 -79q2 -1 3 -2.5t1 -3.5q-1 -3 -2.5 -4t-2.5 -1zM565 178h-1.5h-0.5l-136 33q-4 1 -6.5 5t-0.5 8q1 4 4.5 6t7.5 1l133 -33q3 1 4.5 2.5t1.5 2.5q-4 6 -12 10.5t-11 6.5q-1 0 -1 0.5t-1 0.5q-38 27 -44.5 34t-6.5 10v4t2 4l30 40q1 1 32.5 38.5t56.5 70.5
q21 28 12 47.5t-10 20.5l-98 114q-3 3 -2.5 7t3.5 7t7 2.5t8 -3.5l98 -114q10 -10 16.5 -36t-17.5 -57q-26 -34 -57.5 -72l-31.5 -38l-26 -33q6 -6 17 -14l22 -16q4 -1 14.5 -7.5t17.5 -15.5q3 -4 3.5 -8.5t-0.5 -8.5q-2 -9 -10.5 -14t-11.5 -6q-1 0 -2.5 0.5t-2.5 0.5z
M565 211q-2 0 -4.5 1.5t-4.5 4.5t-1 7.5t5 6.5q2 1 3 2t1 2q0 2 -2 4.5t-5 3.5q-16 7 -30.5 23t-15.5 20q-1 3 -0.5 5t2.5 4q2 3 6.5 4t7.5 -2q1 0 2 -1t1 -2q3 -3 14 -15t22 -16q1 0 1.5 -0.5l0.5 -0.5q3 -2 10.5 -9t7.5 -18q0 -5 -3 -10.5t-12 -10.5q-2 -2 -3 -2.5
t-3 -0.5zM458 259h-2h-1q-9 2 -14.5 9l-5.5 7q-1 1 -0.5 3.5t2.5 3.5t4 0.5t3 -2.5q2 -2 5.5 -6.5t8.5 -5.5l2 0.5t4 1.5q6 4 16 6.5t27 -6.5q1 -1 2 -3t0 -4t-3 -2.5t-4 0.5q-14 7 -21.5 5.5t-12.5 -4.5q-2 -1 -4.5 -2t-5.5 -1v0zM475 267h-1.5t-1.5 1t-1.5 3t0.5 4
q1 1 40.5 57.5t59.5 83.5q18 25 13 42.5t-5 18.5l-97 102q-6 7 -10 21t-2 25q2 6 4.5 9.5t4.5 3.5q2 1 4 0.5t3 -2.5q1 -1 0.5 -3t-2.5 -4q-1 -1 -2 -3t-1 -4q-1 -8 2 -19.5t7 -17.5l97 -102q1 -2 7 -23t-14 -50q-20 -27 -60 -83.5t-40 -57.5q-1 -1 -2 -1.5t-3 -0.5v0z
M532 599q-1 0 -2 0.5t-2 1.5q-12 17 -21 20.5t-19 4.5q-3 0 -6.5 0.5t-7.5 1.5q-7 3 -14.5 3.5t-14.5 0.5q-5 0 -10 1t-9 1q-12 3 -20.5 17.5t-9.5 15.5q0 2 0.5 4t1.5 3q2 1 4 0.5t4 -2.5q3 -7 10 -16.5t13 -10.5q4 -1 8.5 -1.5t9.5 -0.5q7 -1 15.5 -1.5t15.5 -4.5
q3 0 6 -1t6 -1q10 0 21.5 -4.5t26.5 -24.5q1 -2 0.5 -4t-1.5 -3h-3h-2zM659 579q-3 0 -5.5 2t-4.5 5q0 1 -12 15t-53 23q-4 1 -6.5 4.5t-2.5 7.5q1 4 5 6.5t8 2.5q51 -12 65.5 -31t15.5 -22t-1.5 -7t-5.5 -5l-1 -0.5t-2 -0.5zM830 429h-1h-2l-36 11q-4 1 -6 4.5t-2 7.5
q2 4 5.5 6t7.5 1l35 -10q5 1 9 2.5t5 2.5q1 2 2.5 5.5t0.5 5.5t-3 3.5t-5 3.5q-13 6 -27 6.5t-17 -0.5q-3 -3 -6.5 -4.5t-6.5 0.5q-3 1 -4.5 5t-0.5 8q1 2 3.5 5t6.5 4q12 5 30 2t30 -8q8 -3 12.5 -8t6.5 -10q3 -9 0.5 -16t-5.5 -12q-4 -10 -16 -12.5t-16 -2.5q1 0 0.5 0
h-0.5zM880 585q-2 0 -4 0.5t-3 1.5q-3 3 -3.5 7.5t2.5 7.5t4.5 8t2.5 7q0 1 -4 18.5t-34 34.5q-11 6 -21.5 8t-19.5 -1q-10 -3 -16 -8.5t-7 -7.5q-1 -3 -4 -11.5t-5 -15.5q-2 -3 -5 -5.5t-7 -1.5q-4 2 -6 5.5t-1 6.5q0 4 3.5 15t6.5 15q2 4 10.5 13t24.5 14q13 4 27 1.5
t29 -10.5q39 -23 44 -48t4 -26q0 -2 -2.5 -10.5t-7.5 -15.5q-2 -1 -4 -1.5t-4 -0.5zM852 607q-2 0 -2.5 0.5l-1.5 1.5q-28 37 -53.5 46l-25.5 9q-2 0 -3.5 2t-0.5 3q0 2 2 3.5t3 0.5q2 0 29 -9t57 -50q2 -2 1.5 -4t-2.5 -3h-1.5h-1.5zM837 589q-2 0 -3 1l-1 1q-16 21 -44 39
t-29 18q-2 0 -2.5 2.5t0.5 4.5t3 2.5t4 -0.5q1 -1 30 -19t46 -40q1 -2 0.5 -4t-1.5 -4q-1 0 -2 -0.5zM847 559q-3 0 -6.5 2.5t-6.5 5.5l-0.5 0.5t-0.5 1.5l-7 17q0 2 0.5 3.5l0.5 1.5l24 27q1 1 2 1.5t2 0.5h2t2 -1l25 -25l1 -1t0 -3l-1 -1.5t-1 -2.5l-15 -12t-17 -13
q-1 -2 -2 -2h-2zM845 568v0v0v0v0zM842 573q0 -2 1.5 -2.5t2.5 -1.5q4 3 12 10t13 11l-16 17l-18 -21zM808 571q-7 0 -17 10t-16 18q-1 1 -0.5 3t1.5 4q2 1 4 0.5t3 -1.5q7 -10 15 -17t10 -7q5 0 11 3.5t8 6.5q2 2 4 2t4 -2q1 -1 1 -3t-1 -4q-4 -4 -11.5 -8t-15.5 -5v0v0z
M744 529l-1.5 0.5t-2.5 1.5t-0.5 3.5t1.5 3.5l21 15q11 9 22.5 5t17.5 -10q1 0 3 -0.5t3 -0.5q1 5 6.5 9t10.5 4q2 0 5 3.5t6 7.5q1 1 3 1.5t4 -0.5q1 -2 1.5 -4t-0.5 -3q-9 -13 -13 -14.5t-6 -1.5q-1 0 -3.5 -2t-3.5 -4q-1 -1 -2 -2.5t-3 -2.5q-5 -1 -10 0t-6 2h-0.5
t-0.5 1q-1 1 -10 6.5t-18 -1.5l-20 -16q-1 -1 -2 -1h-2zM824 560v0v0zM1014 49h-2.5t-1.5 1l-63 25l-63 17l-19 4l-116 34l-68 2h-1h-1l-102 19h-1.5t-1.5 1l-79 35l-70 23l-47 2h-79h-1.5h-0.5l-90 23q-1 0 -1.5 0.5t-1.5 0.5l-82 48l-102 16q-2 0 -3.5 1t-3.5 3l-12 17
q-2 3 -1.5 7.5t3.5 6.5q3 3 7.5 2t6.5 -4l11 -13l98 -14q1 0 2 -0.5t2 -0.5l82 -48l87 -22h80l50 -2h1.5t1.5 -1l72 -25l79 -34l100 -20l68 -2h1h2l116 -36l19 -4l64 -17h0.5h0.5l64 -26q4 -1 5.5 -5t-0.5 -8q-1 -3 -3.5 -4.5t-5.5 -1.5z" />
    <glyph glyph-name="uniE92A" unicode="&#xe92a;" 
d="M32 216q12 12 30 19t35 7t33 -7t29 -19q10 -12 25 -18.5t32 -6.5q15 0 30.5 6.5t26.5 18.5q10 10 21 16t24 8h2.5h1.5q1 0 2 0.5t3 0.5h4h4h1h1h1h1q17 0 33 -7t28 -19q11 -12 26 -18.5t32 -6.5q14 0 29 6t26 16q1 0 1 1t1 1q12 12 30 19t36 7q17 0 33 -7t28 -19
q11 -12 25.5 -18.5t31.5 -6.5q16 0 31 6.5t27 18.5q12 13 28 19.5t34 6.5h1h1h1.5h0.5q17 0 33 -7t29 -19q10 -12 25 -18.5t32 -6.5q15 0 30.5 6.5t26.5 18.5q3 3 3 7t-3 7t-7 3t-7 -3q-8 -9 -19.5 -14t-22.5 -5q-12 0 -23 5t-19 14q-7 7 -15 13t-18 9q15 12 22 23.5t4 19.5
q-2 5 -6 7t-8 2q-40 -7 -118 -6t-169 7q1 7 4 15t7 12q8 7 15 23.5t13 32.5q7 -4 17.5 -8.5t17.5 -4.5q6 0 22.5 4.5t30.5 20.5q11 11 15.5 26t2.5 32q-2 29 -10.5 54t-15.5 41q1 0 2.5 -1t2.5 -2q31 -18 91.5 -25.5t63.5 -7.5l8.5 -0.5t19.5 -4.5q5 -1 9 -1.5t7 -0.5
q5 0 9.5 1t8.5 1q6 2 12 2.5t13 -2.5q5 -1 9.5 0t7.5 4q8 6 9 16.5t0 14.5q0 4 -3 7t-7 2q-13 0 -41.5 1t-40.5 5q-17 4 -52 12t-51 10q-7 2 -17.5 9t-20.5 16q-12 9 -23.5 17.5t-22.5 12.5q-9 4 -15 8.5t-11 9.5q-6 5 -13 9.5t-16 5.5q1 4 1 8v8q0 32 -14 49.5t-39 17.5
q-23 0 -38 -17.5t-16 -44.5q-19 5 -31 6.5t-14 1.5h-3.5t-3.5 -1q-8 -1 -24.5 -1t-47.5 8q-37 12 -77.5 10.5t-52.5 -3.5q-17 12 -32 15.5t-28 0.5q-13 -4 -18 -12t-5 -10q-1 -2 -0.5 -5t2.5 -5q1 -2 4 -3t5 -1t6.5 -0.5t5.5 -2.5q7 -8 24.5 -18.5t33.5 -6.5q21 -2 45 -5
t28 -4q9 -2 66.5 -14.5t70.5 -12.5q7 0 19.5 -13t12.5 -19q0 -10 8 -27.5t15 -21.5q2 -1 4 -8t4 -18q0 -2 0.5 -3.5l0.5 -1.5v-2.5t-1 -4.5h-60q-68 -4 -91.5 -20t-29.5 -32q0 -1 -0.5 -1t0.5 0v0v0q-2 -3 -7 -14.5t-15 -36.5q-3 -8 -6 -16.5t-4 -10.5q-3 -5 -13.5 -27
t-12.5 -27q-74 6 -122.5 10.5t-49.5 4.5q-33 2 -47 -1t-16 -13q-1 -4 7.5 -16.5t70.5 -33.5q15 -4 29 -7t27 -6q6 -2 12.5 -3.5t13.5 -3.5q4 0 13 -2t19 -4q-6 -3 -11.5 -7.5t-10.5 -9.5q-8 -9 -19.5 -13.5t-22.5 -4.5q-12 0 -23 4.5t-19 13.5q-15 15 -35.5 24t-41.5 9
t-42.5 -9t-37.5 -24q-3 -3 -3 -7t3 -7t7.5 -4.5t7.5 2.5v0zM742 230q-8 -9 -19.5 -14t-22.5 -5q-12 0 -23 5t-19 14q-3 3 -6.5 6t-7.5 6h10h10q27 0 52.5 1.5t48.5 3.5q-7 -4 -12.5 -8.5t-10.5 -8.5v0zM833 262q7 3 14.5 6t13.5 6q-3 -3 -7.5 -6.5t-10.5 -6.5h-0.5h-0.5
q-3 0 -5 0.5t-4 0.5zM557 306q2 3 3 5.5t2 6.5v0.5v1.5l1 8l12 -3q-2 -5 -3 -11t-2 -9q-3 0 -6 0.5t-7 0.5zM413 351q7 7 17.5 29.5t14.5 34.5q9 -1 28 -6t37 -10h0.5h0.5q5 -1 17 -3.5t21 -2.5v-0.5v-0.5l-6 -69q-3 -10 -8.5 -12.5t-9.5 -2.5q-34 2 -69 4.5t-67 4.5
q6 10 13 20t11 14v0zM703 414q-10 -11 -22.5 -14.5t-14.5 -3.5q-3 0 -12 3.5t-17 7.5q1 5 2 11t1 11q0 4 -3 7t-7 3q-5 0 -7.5 -3.5t-2.5 -6.5q0 -4 -1.5 -11.5t-4.5 -15.5q-5 -19 -12.5 -35t-11.5 -19q-2 -3 -4.5 -6t-3.5 -7l-16 4l5 51q2 12 4 26.5t3 18.5q0 2 0.5 4.5
t0.5 7.5q0 9 1 24t10 23q3 2 7 3.5t8 0.5l6 -1q30 -3 46 -7t34 -18q3 -4 7.5 -3t7.5 4q2 3 2 7.5t-3 6.5q-4 2 -7 4.5t-6 4.5q5 2 9.5 3t8.5 3q3 -10 5 -21t3 -23q0 -14 -4 -25t-11 -19v0zM964 538q0 -1 -0.5 -2t-0.5 -2q-12 3 -20 2.5t-15 -2.5q-4 -1 -8 -1.5t-8 -0.5l2 7
q13 -1 26.5 -1.5t23.5 0.5zM597 736q21 0 27 -15.5t6 -31.5q0 -32 -13 -46t-21 -14q-6 0 -17.5 9t-15.5 36v0v0q1 3 1 5t-2 5v2.5v3.5q1 21 10.5 33.5t24.5 12.5v0zM285 685q-6 -3 -19.5 4.5t-17.5 12.5l-3.5 3.5t-3.5 2.5q6 1 16 -2t26 -13q1 -1 3 -1.5t4 -0.5l2 0.5t7 0.5
l-3 -8q-2 0 -4 0.5t-3 0.5h-2.5h-1.5zM552 595q1 10 -7 20.5t-11 13.5q-6 6 -15.5 13t-19.5 7q-11 0 -66.5 11t-63.5 14q-7 2 -26.5 4.5t-35.5 3.5l4 11q19 1 48.5 1.5t55.5 -6.5q34 -10 52.5 -9.5t27.5 0.5h2h2t14 -1t32 -8q4 -34 21 -48.5t32 -14.5q12 0 26 11t22 33
q5 1 9 -1.5t11 -8.5q5 -6 13 -11.5t18 -9.5t20.5 -11.5t20.5 -16.5q13 -10 25 -18t22 -10q18 -3 52 -10.5t50 -12.5q3 -1 7.5 -1.5t9.5 -1.5l-2 -6q-12 3 -21.5 3.5l-9.5 0.5l-59 7t-87 24q-9 5 -17.5 8.5t-16.5 4.5h-1h-1q-18 2 -28 -2t-11 -4q-4 -2 -4.5 -6.5t1.5 -7.5
q2 -4 6.5 -5t8.5 2l5.5 2t14.5 2q3 -7 9.5 -20t13.5 -32q-5 -2 -12.5 -4t-15.5 -4q-14 6 -28.5 8.5t-37.5 5.5l-6 1q-6 0 -12 -0.5t-10 -4.5v3.5v3.5l-0.5 1t-0.5 3q-3 14 -6.5 25t-11.5 15q-2 4 -7.5 16t-4.5 17v0zM379 397q4 11 10 27t8 19q1 1 2 2.5t1 3.5q3 7 20 21
t83 19h60q-4 -11 -4.5 -23t-0.5 -20v-4v-2q-1 -3 -2.5 -11t-2.5 -17q-5 1 -15.5 3t-20.5 3q-53 17 -67 17t-16 -1q-2 -2 -3.5 -4t-2.5 -5q-1 -5 -12 -29.5t-18 -30.5l-3.5 -3.5t-4.5 -5.5h-30q3 4 4.5 7.5t2.5 4.5q1 2 4 9.5t8 19.5v0zM356 346h27q-5 -7 -9.5 -14.5
l-7.5 -12.5q-6 1 -11.5 1t-10.5 1q2 5 5.5 11.5t6.5 13.5zM849 280q-35 -18 -94.5 -24t-129.5 -4q-11 5 -22 8t-22 3q-10 0 -18.5 -1.5t-17.5 -4.5q-62 4 -123 11t-110 15l-45 6q-28 5 -63.5 13.5t-63.5 15.5h4h4q9 -1 94 -9t197.5 -16t227.5 -13q114 -5 182 0zM252 273
q-7 1 -13.5 3t-12.5 3q-14 3 -26.5 6.5t-27.5 6.5q-11 4 -22.5 9t-20.5 9q27 -7 66.5 -16.5t70.5 -14.5l45 -6q46 -7 101.5 -13.5t112.5 -11.5q-6 -4 -12 -7.5t-10 -8.5q-1 0 -1 -0.5t-1 -0.5q-9 -9 -20 -14t-22 -5q-13 0 -24 5t-18 14q-16 15 -36 24t-41 9h-1h-1h-1h-1
q-5 0 -9 -0.5t-9 -0.5q-8 0 -27.5 3t-38.5 7zM984 110q-8 -8 -19.5 -13t-22.5 -5q-12 0 -23 4.5t-19 13.5q-15 15 -35.5 24t-41.5 9h-0.5h-1.5h-1h-1q-23 0 -42.5 -8.5t-34.5 -24.5q-8 -8 -19.5 -13t-22.5 -5q-12 0 -23 4.5t-19 13.5q-15 15 -35.5 24t-40.5 9
q-22 0 -42.5 -8.5t-35.5 -23.5q-1 0 -1 -0.5t-1 -0.5q-9 -8 -20 -13t-22 -5q-13 0 -24 4.5t-18 13.5q-16 15 -36 24t-41 9h-1h-1h-1h-1q-23 0 -42.5 -8.5t-34.5 -24.5q-8 -8 -19.5 -13t-22.5 -5q-12 0 -23 4.5t-19 13.5q-15 15 -35.5 24t-41.5 9t-42.5 -9t-37.5 -24
q-3 -3 -3 -7t3 -7q4 -3 8 -3t7 3q12 12 30 19t35 7t33 -7t29 -19q11 -12 25.5 -18.5t31.5 -6.5q15 0 30.5 6.5t26.5 18.5q13 13 28.5 19.5t34.5 6.5h1h1h1h1q17 0 33 -7t28 -19q11 -12 26 -18.5t32 -6.5q14 0 29 6t26 17q1 0 1 0.5t1 0.5q12 12 30 19t36 7q17 0 33 -7
t28 -19q11 -12 26 -18.5t31 -6.5t31 6.5t27 18.5q12 13 28 19.5t34 6.5h1.5h0.5h1.5h0.5q17 0 33.5 -7t28.5 -19q11 -12 25.5 -18.5t31.5 -6.5q16 0 31 6.5t26 18.5q4 3 4 7t-4 7q-3 3 -9 3.5t-9 -2.5v0z" />
    <glyph glyph-name="uniE92B" unicode="&#xe92b;" 
d="M1013 59h-302q0 15 -9 28t-23 21l13 158q3 44 2 55t-2 12q-3 7 -39.5 50t-59.5 70l12 136q9 -7 22 -17.5t30 -25.5q13 -10 25 -7.5t17 6.5l0.5 0.5l0.5 0.5l117 127h1q3 0 5.5 1.5t3.5 3.5l9 16h55v-87q0 -3 1.5 -4t3.5 -1t3.5 1t1.5 4v194q0 3 -1.5 4t-3.5 1t-3.5 -1
t-1.5 -4v-97h-50l1 2q1 3 0.5 6.5t-2.5 5.5l-36 33q-2 2 -4 2.5t-4 0.5q-3 0 -5 -1.5t-3 -3.5l-26 -45h-154l-0.5 0.5l-0.5 0.5l-1 1l-1 1t-13 7t-29 6q3 8 4 16t1 17q0 34 -15 53t-42 19q-25 0 -41.5 -19.5t-16.5 -50.5q0 -10 1 -19t3 -16q-16 0 -28 -6t-13 -7t-1.5 -1
t-0.5 -1h-0.5t-0.5 -1h-154l-33 49q-1 2 -3 3t-4 1t-4.5 -0.5t-3.5 -2.5l-36 -33q-3 -2 -3 -6t1 -7l3 -5h-33v97q0 3 -1 4t-4 1q-2 0 -3.5 -0.5t-1.5 -3.5v-194q0 -3 1.5 -4t3.5 -1q3 0 4 1t1 4v87h36q2 0 3 0.5t1 1.5l5 -7q2 -3 3.5 -3.5t4.5 -0.5l128 -138v0l1 -1
q5 -4 17 -7t25 8q17 16 30 25t22 13l10 -132q-16 -22 -49 -68.5t-35 -52.5q-1 -1 -2 -12t2 -55l19 -158q-13 -8 -21 -20.5t-8 -26.5h-325q-4 0 -7 -3t-3 -7q0 -5 3 -8t7 -3h1002q4 0 7 3t3 8q0 4 -2.5 6.5t-6.5 2.5v0zM633 374q15 -17 26 -31t14 -18q1 -4 0 -22t-2 -35
l-13 -152q-3 1 -6 1h-6q-7 0 -13.5 -1.5t-11.5 -3.5l-14 169q0 2 -1 4t-3 3l-36 27q4 10 19 34t46 24q0 1 0.5 1h0.5zM801 729l20 -20l-8 -14q-1 0 -2 -0.5t-2 -0.5h-30zM768 673h22l-105 -111q-1 -1 -5 -2.5t-9 3.5q-17 14 -29.5 24.5t-20.5 17.5l23 26q4 -4 7 -7.5t4 -5.5
q7 -7 12.5 -9.5t10.5 -2.5q4 0 7 1t5 3zM755 694l-3 -5q-1 -1 -1 -2v-1l-74 -61q-1 0 -2.5 1t-4.5 4q-6 8 -24 29t-30 34h139v1zM511 803q23 0 30 -16.5t7 -34.5q0 -34 -14.5 -48.5t-22.5 -14.5q-7 0 -22 12.5t-15 52.5q0 23 10 36t27 13v0zM264 694h142l-30 -35l-24 -28
q-1 0 -1.5 -1t-1.5 -2l-85 64v0.5v1.5zM197 713l20 19l19 -28h-33l-6 9v0zM352 563q-4 -5 -8.5 -4t-5.5 3l-115 122h23q0 -2 1 -4t3 -3l86 -64q1 -2 3.5 -4t6.5 -2h1.5h0.5q7 0 12 4.5t8 6.5q1 2 4 5.5t7 7.5l24 -30q-10 -7 -22.5 -15.5t-28.5 -22.5v0zM423 611l-3 -1.5
l-9 -4.5l-27 33q13 15 26.5 31.5t17.5 21.5q3 2 14.5 6.5t23.5 0.5q9 -16 21.5 -22.5t22.5 -6.5t21 6.5t20 19.5h35q2 -1 3.5 -2t2.5 -1q4 -5 17.5 -21t26.5 -30l-26 -28q-4 3 -6.5 5l-2.5 2q-2 2 -5 2t-5 -1t-4 -3.5t-2 -4.5l-14 -157q-3 -2 -7 -4t-7 -3q-9 -3 -21.5 -4.5
t-25.5 -1.5q-22 0 -39 4t-24 10l-10 145q0 2 -1.5 4t-3.5 4q-2 1 -4.5 1.5t-4.5 -0.5v0zM446 443q11 -7 29 -10t36 -3q15 0 27.5 1.5t23.5 5.5q4 1 7.5 2.5t5.5 3.5q11 -13 24.5 -28.5t26.5 -29.5q-30 -4 -46 -26.5t-21 -35.5l-41 32q-3 2 -6.5 2t-6.5 -2l-33 -28
q-11 29 -39.5 40t-33.5 11q12 16 24.5 33t22.5 32v0zM362 324q3 4 11.5 16.5t19.5 28.5q1 -1 2 -1.5l1 -0.5q1 0 29.5 -10t37.5 -39l-33 -29q-1 -1 -2 -3t-1 -4l-11 -168q-4 2 -8.5 2h-9.5q-4 0 -8 -0.5t-8 -1.5l-17 152q-2 17 -2.5 35t-0.5 23zM354 59q1 13 13.5 25.5
t30.5 12.5q19 0 31.5 -12.5t12.5 -25.5h-88zM582 59h-119q0 14 -8 26t-20 20v0.5v0.5l11 171l66 55l75 -58l13 -175q-8 -8 -13 -18.5t-5 -21.5zM602 59q0 14 13 26t31 12q19 0 31.5 -12.5t12.5 -25.5h-88v0zM77 663q2 0 3.5 1.5t1.5 3.5v72q0 2 -1.5 3.5t-3.5 1.5
q-3 0 -4 -1.5t-1 -3.5v-72q0 -2 1 -3.5t4 -1.5zM97 632q3 0 4 1.5t1 3.5v123q0 3 -1 4t-4 1q-2 0 -3.5 -1t-1.5 -4v-123q0 -2 1.5 -3.5t3.5 -1.5zM118 602q2 0 3.5 1t1.5 4v194q0 3 -1.5 4t-3.5 1q-3 0 -4 -1t-1 -4v-194q0 -3 1 -4t4 -1zM957 663q3 0 4.5 1.5t1.5 3.5v72
q0 2 -1.5 3.5t-4.5 1.5q-2 0 -3.5 -1.5t-1.5 -3.5v-72q0 -2 1.5 -3.5t3.5 -1.5zM937 632q2 0 3.5 1.5t1.5 3.5v123q0 3 -1.5 4t-3.5 1t-3.5 -1t-1.5 -4v-123q0 -2 1.5 -3.5t3.5 -1.5zM916 602q3 0 4.5 1t1.5 4v194q0 3 -1.5 4t-4.5 1q-2 0 -3.5 -1t-1.5 -4v-194q0 -3 1.5 -4
t3.5 -1z" />
    <glyph glyph-name="uniE92C" unicode="&#xe92c;" 
d="M17 420q13 13 30 20t34 7h2.5h2.5q2 -1 5 -1t6 -1q13 -2 24 -8.5t20 -15.5q11 -11 26 -17.5t31 -6.5q15 0 29.5 6.5t26.5 17.5q11 13 27 19.5t33 6.5q16 0 32.5 -7t28.5 -19q11 -11 25.5 -17.5t31.5 -6.5h0.5h0.5h2h2q15 0 29.5 6.5t26.5 16.5l0.5 0.5l0.5 0.5
q12 13 29 20t34 7q16 0 32 -7t28 -19q11 -11 26 -17.5t31 -6.5q15 0 30 6.5t26 17.5q12 13 27.5 19.5t33.5 6.5q16 0 32 -7t28 -19l2 -2l2 -2q1 0 2 -1l2 -2l3 -1.5t2 -0.5t1.5 -0.5l0.5 -0.5l23 -3q3 0 11.5 -1t21.5 -1q26 0 58 7t41 31q1 2 0.5 4.5t-1.5 3.5q-1 2 -3 3
l-4 2l-300 53l23 33q1 2 14 30.5t3 58.5q-6 16 -18 28t-32 18q-23 10 -61.5 2t-64.5 -78v-1q-3 -6 -9 -8t-18 -4h-3v1l-25 19q-25 18 -55 40.5t-55 40.5l-25 19q-17 12 -30 9t-18 -9q-3 -3 -33 -29q-29 -27 -70.5 -64t-86.5 -78q-45 -40 -78 -71v0v0q-20 -1 -38.5 -9.5
t-31.5 -21.5q-3 -3 -3 -7.5t3 -7.5t8 -3.5t8 1.5v0zM994 441q-15 -11 -46.5 -13t-54.5 1l-23 2l-0.5 0.5l-0.5 0.5l-1 1l-2 2q-15 15 -35 23t-40 8q-23 0 -42.5 -8t-33.5 -23q-9 -9 -20 -13.5t-22 -4.5q-13 0 -23.5 4.5t-18.5 13.5q-11 10 -24 17.5t-26 10.5q6 6 11.5 10.5
t10.5 7.5q4 -1 7 -2t5 -2q9 -6 17.5 -9t16.5 -3q17 0 30 9t20 17l1 2l294 -52v0zM697 660q15 -5 24 -13.5t13 -19.5t2.5 -22.5t-4.5 -21.5q-7 8 -21.5 20t-37.5 17q-17 3 -35 0.5t-37 -11.5q18 36 42 49t54 2v0zM596 592q20 12 38.5 16t36.5 1q24 -5 39 -19.5t18 -18.5
q-3 -7 -5.5 -11l-2.5 -4l-36 -53q-1 0 -17.5 -12.5t-38.5 3.5q-16 12 -47 9.5t-38 -4.5q-4 -1 -6.5 -4t-1.5 -8q0 -5 3.5 -7t8.5 -1q9 1 20 2.5t22 0.5q-5 -3 -9.5 -7.5l-9.5 -9.5q-3 1 -6.5 1h-6.5q-21 0 -41.5 -8.5t-36.5 -22.5l-0.5 -0.5l-0.5 -0.5q-8 -9 -19 -13.5
t-23 -4.5q-11 0 -24 4t-21 14q-1 0 -1.5 1t-1.5 1q-15 14 -34 21.5t-39 7.5q-22 0 -41.5 -8t-33.5 -23q-9 -9 -20 -13.5t-22 -4.5q-13 0 -23.5 4.5t-18.5 13.5q-5 4 -9.5 8t-10.5 7q2 1 3 1t2 1q2 1 34 19t77 54q2 2 4.5 3.5t4.5 3.5q4 0 11.5 -0.5t18.5 -0.5q13 0 29 1
t33 4q6 -11 30 -34t72 -23h0.5h0.5q22 0 41.5 7.5t32.5 20.5q12 12 17.5 27.5t4.5 33.5v0.5v0.5q13 3 26 7t18 17zM287 552q5 5 10.5 9.5t10.5 8.5q16 13 31 25t21 16q3 -2 6 -6t6 -7q5 -7 10 -13.5t10 -11.5q-21 -14 -52 -17.5t-53 -3.5v0zM355 696v0q1 0 6.5 2t15.5 -5
q0 -1 25 -19q25 -19 55 -41t55 -41l25 -18v1q0 -2 2 -3.5t4 -1.5v-0.5v-0.5q0 -16 -5 -29.5t-15 -23.5q-11 -13 -29.5 -19.5t-38.5 -6.5q-43 0 -64 19.5t-27 30.5q11 3 21.5 7t18.5 11q15 -16 28.5 -25.5t25.5 -9.5q4 0 7 2.5t3 7.5t-3 7.5t-7 2.5q-13 0 -36.5 27t-35.5 41
q-11 13 -15 17.5t-7 4.5q-9 2 -22.5 -8t-47.5 -38q-12 -10 -25.5 -21t-28.5 -23q-43 -34 -75 -51.5l-32 -17.5q-9 -4 -17.5 -5.5t-15.5 -1.5v0v0l212 191q20 15 29.5 24t13.5 14v0zM17 318q13 12 30 19.5t34 7.5q16 0 32 -7.5t28 -18.5q11 -12 26 -18.5t31 -6.5
q15 0 29.5 6.5t26.5 18.5q11 13 27 19.5t33 6.5h1.5h0.5h1.5h0.5q17 0 33 -7.5t28 -18.5q11 -12 25.5 -18.5t30.5 -6.5q15 0 29.5 6t24.5 17q1 0 1.5 0.5t1.5 0.5q12 12 29 19.5t34 7.5q16 0 32 -7.5t28 -18.5q11 -12 26 -18.5t31 -6.5q15 0 30 6.5t26 18.5q12 13 27.5 19.5
t32.5 6.5h1.5h1.5h0.5h1.5q16 0 32 -7.5t28 -18.5q11 -12 25.5 -18.5t30.5 -6.5q15 0 29.5 6t25.5 17l0.5 0.5t1.5 0.5q9 9 22.5 15.5t27.5 9.5q4 0 6.5 3.5t1.5 8.5q-1 4 -4.5 6.5t-7.5 1.5q-17 -3 -32.5 -10.5t-27.5 -19.5l-0.5 -0.5t-1.5 -0.5q-8 -8 -19 -12.5t-23 -4.5
t-22.5 4.5t-18.5 12.5q-15 16 -35 24t-40 8h-1.5h-0.5h-1.5h-1.5q-22 0 -41.5 -8t-33.5 -24q-9 -8 -20 -12.5t-22 -4.5q-13 0 -23.5 4.5t-18.5 12.5q-16 16 -35.5 24t-40.5 8t-41.5 -8.5t-35.5 -22.5q-1 0 -1 -0.5t-1 -0.5q-5 -8 -15.5 -12.5t-22.5 -4.5t-22.5 4.5
t-19.5 12.5q-15 16 -35 24t-41 8h-0.5h-1.5h-0.5h-1.5q-22 0 -41.5 -8t-33.5 -24q-9 -8 -20 -12.5t-22 -4.5q-13 0 -23.5 4.5t-18.5 12.5q-16 16 -35.5 24t-40.5 8q-22 0 -42.5 -8.5t-35.5 -23.5q-3 -3 -3 -7t3 -7t8.5 -3t8.5 3v0zM1013 247q-17 -3 -32.5 -10.5t-28.5 -18.5
l-0.5 -0.5t-1.5 -0.5q-8 -9 -19 -13.5t-23 -4.5t-22.5 4.5t-18.5 13.5q-15 15 -35 23t-40 8h-1.5h-0.5h-1.5h-1.5q-22 0 -41.5 -8t-33.5 -23q-9 -9 -20 -13.5t-22 -4.5q-13 0 -23.5 4.5t-18.5 13.5q-16 15 -35.5 23t-40.5 8t-41.5 -8.5t-35.5 -21.5q-1 0 -1 -0.5t-1 -0.5
q-8 -9 -19 -13.5t-23 -4.5t-22.5 4.5t-19.5 13.5q-15 15 -35 23t-41 8h-0.5h-1.5h-0.5h-1.5q-22 0 -41.5 -8t-34.5 -23q-8 -9 -19 -13.5t-23 -4.5t-22.5 4.5t-18.5 13.5q-16 15 -36 23t-40 8q-22 0 -43 -8.5t-35 -22.5q-3 -3 -3 -7.5t3 -7.5t7 -3t7 3q13 13 30 20t34 7
q16 0 32 -7t28 -19q11 -11 25.5 -17.5t30.5 -6.5t30.5 6.5t26.5 17.5q11 13 27 19.5t33 6.5h1h1h1.5h0.5q16 0 32 -7t29 -19q10 -11 25 -17.5t31 -6.5q15 0 29.5 5.5t24.5 16.5q1 0 1.5 0.5l0.5 0.5q13 13 30 20t34 7q16 0 32 -7t28 -19q11 -11 25.5 -17.5t31.5 -6.5
q15 0 29.5 6.5t26.5 17.5q11 13 27 19.5t33 6.5h1.5h0.5h1.5h0.5q17 0 33 -7t28 -19q11 -11 25.5 -17.5t30.5 -6.5q15 0 29.5 5.5t24.5 16.5q1 0 1.5 0.5l0.5 0.5q10 9 23.5 16t27.5 9q3 1 6 4t2 8q5 4 2.5 6.5t-6.5 1.5z" />
    <glyph glyph-name="uniE92D" unicode="&#xe92d;" 
d="M234 696q7 7 16.5 10.5t19.5 3.5h3.5t2.5 -1h2h2q6 -1 13 -5t11 -8q7 -8 16.5 -12.5t20.5 -4.5q10 0 19.5 4.5t17.5 12.5q7 7 15.5 10.5t18.5 3.5q9 0 18 -3.5t15 -10.5q7 -8 17 -12.5t20 -4.5h0.5h0.5h1.5h0.5q10 0 19.5 4.5t16.5 11.5v0h1q7 7 16.5 10.5t19.5 3.5
q9 0 18 -3.5t16 -10.5q7 -8 16.5 -12.5t20.5 -4.5q10 0 19.5 4.5t17.5 12.5q7 7 15 10.5t18 3.5t18.5 -3.5t15.5 -10.5q1 -1 1.5 -2t1.5 -1q1 -1 2 -1.5l1 -0.5q1 -1 2.5 -1.5t2.5 -0.5t1.5 -0.5l0.5 -0.5l15 -2q2 0 7.5 -0.5t12.5 -0.5q17 0 37.5 4.5t26.5 20.5
q1 2 0.5 4.5t-1.5 3.5q-1 3 -3 4t-4 1l-175 31l10 16q1 0 9 18.5t1 38.5q-4 11 -12 18.5t-21 12.5q-12 4 -38 0.5t-44 -50.5q0 -1 -3 -2t-9 -2q-7 6 -51 38.5t-45 33.5q-11 8 -20.5 6.5t-14.5 -6.5q-5 -4 -63 -56.5t-99 -88.5q-12 -2 -23 -7t-20 -14q-3 -3 -3 -7t3 -7
t7.5 -2.5t7.5 3.5v0zM568 731q-2 0 -4 0.5t-4 0.5q2 0 4.5 0.5t5.5 0.5q0 -1 -1 -1.5zM652 710q-4 -4 -10 -6.5t-12 -2.5t-12 2.5t-11 6.5q-6 6 -12.5 10t-13.5 8q1 1 2.5 2t2.5 2q2 0 4 -1t3 -1q6 -4 11.5 -6.5t10.5 -2.5q11 0 19.5 5t13.5 11l41 -7q-11 -2 -20.5 -6.5
t-16.5 -13.5zM763 707l-12 1l-1 0.5t-1 1.5q-4 4 -8 7t-9 5l77 -13q-9 -2 -22 -2.5t-24 0.5v0zM643 839q9 -3 13.5 -7t7.5 -10q1 -5 1 -10t-1 -10q-6 6 -14 11t-19 8q-9 1 -18 0.5t-18 -3.5q8 17 20 22t28 -1zM587 803v0v0q11 6 21 8t20 1q12 -3 20 -9.5t11 -10.5
q-1 -3 -2 -5t-2 -3l-17 -26q-2 0 -2.5 -2t-1.5 -4v0q-1 -1 -9.5 -7t-19.5 2t-29.5 6.5t-25.5 -2.5q-4 -1 -6.5 -4.5t-1.5 -7.5q0 -3 2.5 -5.5t4.5 -2.5q-12 -2 -22 -7t-18 -13v0v0q-5 -4 -10.5 -6.5t-12.5 -2.5t-13.5 2.5t-10.5 6.5l-1 1h-1q-10 9 -22.5 14.5t-24.5 5.5
q-15 0 -27 -5.5t-21 -15.5q-5 -4 -11 -6.5t-12 -2.5t-12 2.5t-11 6.5q-1 2 -2.5 3.5t-3.5 2.5q6 3 24.5 14t40.5 29l2 2l2 2q2 0 6.5 -0.5t9.5 -0.5q8 0 18 1l20 2q6 -8 20.5 -20t41.5 -12v0h1q14 0 26 4.5t21 12.5q7 7 10 16t3 19q8 1 16 4t12 13zM407 783q0 1 1.5 1.5
t2.5 1.5q8 7 15.5 13t11.5 9q1 -1 2.5 -2t1.5 -3q3 -3 5 -6t5 -5q-9 -5 -21.5 -7t-23.5 -2v0zM414 838q10 9 16 15t9 10v0l2 0.5t5 -2.5q1 0 49 -36l48 -36v0q0 -1 1 -1.5l3 -1.5q0 -9 -3 -15.5t-8 -12.5q-7 -7 -17.5 -10.5t-22.5 -3.5h-0.5h-0.5q-22 0 -34 9t-18 17
q6 1 11 3t10 5q8 -9 16.5 -15t16.5 -6q3 0 6.5 3t3.5 7q0 5 -3 8t-7 3q-5 0 -15 10t-25 30q-7 8 -10 11t-7 4q-6 1 -14 -4.5t-31 -24.5q-7 -6 -15 -12.5t-18 -13.5q-26 -21 -44.5 -31.5l-18.5 -10.5v0v0q-2 -1 -3.5 -1.5t-2.5 -0.5l121 104v0zM234 633q7 7 16.5 11t19.5 4
t18.5 -4t15.5 -11t16.5 -11.5t20.5 -4.5q10 0 19.5 4.5t17.5 11.5q7 7 15.5 11t18.5 4h0.5h0.5h0.5h0.5q9 0 18 -4t15 -11q7 -7 17 -11.5t20 -4.5t19.5 3.5t16.5 10.5q1 0 1 0.5t1 0.5q7 7 16.5 11t19.5 4q9 0 18 -4t16 -11t16.5 -11.5t20.5 -4.5q10 0 19.5 4.5t17.5 11.5
q7 7 15 11t18 4h0.5h0.5h0.5h0.5q10 0 18.5 -4t15.5 -11t16.5 -11.5t20.5 -4.5q10 0 19.5 4t17.5 11q3 3 3 7.5t-3 7.5t-7 3t-7 -3q-5 -5 -11 -7.5t-12 -2.5t-12 2.5t-10 7.5q-10 10 -23 15t-26 5h-0.5h-0.5h-0.5h-0.5q-14 0 -26.5 -5t-21.5 -15q-4 -5 -10 -7.5t-12 -2.5
t-12 2.5t-11 7.5q-10 10 -22.5 15t-25.5 5t-26.5 -5t-22.5 -14l-0.5 -0.5l-0.5 -0.5q-5 -5 -10.5 -7.5t-12.5 -2.5q-6 0 -12 2.5t-10 7.5q-10 10 -22.5 15t-25.5 5h-0.5h-0.5h-0.5h-0.5q-15 0 -27 -5t-21 -15q-5 -5 -11 -7.5t-12 -2.5t-12 2.5t-11 7.5q-9 10 -22 15t-26 5
t-27 -5.5t-23 -14.5q-3 -3 -3 -7.5t3 -7.5t6.5 -1.5t6.5 3.5v0zM1013 89h-371l5 19l9 14q1 2 2 3.5t1 3.5h0.5h0.5q23 19 46 36.5t28 19.5q9 1 15.5 6.5t14.5 12.5q2 3 4.5 5t5.5 6q4 3 23.5 24.5t27.5 35.5q2 0 3.5 -0.5t2.5 -0.5l62 -11q-1 -3 -1.5 -6.5t-0.5 -7.5
q-1 -14 -2 -37.5t-2 -36.5q-4 -4 -7.5 -10.5t-6.5 -14.5q0 -1 -0.5 -1t-0.5 -1l-2 -4t-1 -4q0 -8 10 -12.5l10 -4.5v0v0l22 -6q6 -1 8.5 -1.5t3.5 -1.5l2 -1q1 -1 4 -1.5t4 -0.5l3 -1q1 0 3 -0.5t3 -0.5h0.5h0.5h3h3h4h2q3 0 8.5 1.5t7.5 1.5q4 2 6.5 6.5t2.5 6.5v2v3
q0 3 -1.5 5.5t-3.5 4.5q-2 1 -4.5 2t-3.5 2l-21 10l-11 11v0.5t-1 0.5q2 12 9.5 42t19.5 64q5 16 -5.5 25.5t-15.5 12.5q-28 17 -47.5 25.5t-33.5 11.5q1 1 1 2v2q3 4 4 10t1 12q1 2 2.5 5.5t1.5 7.5q3 -4 6 -6t7 -3h2h3q8 0 13.5 4.5t7.5 12.5q2 4 9.5 27t10.5 32q4 3 7 8
t4 10q2 3 1.5 7t-2.5 7q-5 10 -17 16t-15 7q-3 2 -6.5 0.5t-5.5 -4.5q-5 -8 -4.5 -19t2.5 -19v0v-1q-1 -2 -2 -5t-2 -5l-1.5 1.5t-0.5 1.5q-1 17 -6.5 27t-11.5 15q6 2 10 6.5t7 9.5q1 3 5.5 23t-5.5 38q-5 8 -12.5 13t-17.5 5q-14 1 -23.5 -2t-15.5 -12q-9 -13 -6 -29.5
t5 -23.5q0 -1 -0.5 -2t-0.5 -2q-9 1 -18.5 -1.5t-16.5 -5.5q-3 -2 -6.5 -3t-5.5 -1q-11 2 -20 1t-19 -4q-4 0 -8 -1l-8 -2q-22 -3 -22.5 -38t3.5 -62l-2 -25q0 -1 0.5 -2.5t0.5 -2.5q1 -1 7 -8t17 -8h0.5h0.5q7 0 13 4.5t12 12.5q2 3 2 5t-1 5l-8 25q0 19 1.5 35.5t4.5 21.5
q1 0 2.5 -0.5t2.5 -1.5q4 0 11 -1t17 -1q2 -9 5.5 -24.5t4.5 -27.5q2 -16 0 -23.5t-2 -8.5q-12 -26 -18 -43t-6 -28q-4 -5 -8.5 -13.5t-11.5 -22.5q-4 -9 -10.5 -21.5t-9.5 -16.5q-7 -2 -18.5 -11.5t-27.5 -25.5l-34 -25q-3 0 -6 0.5t-6 1.5h-1.5t-0.5 1q-3 1 -5 1h-5
q-7 -3 -9 -13l-2 -10v0v0l-1 -23v-8.5v-3.5v-2v-4v-4v-3v-4t1 -3l1 -2q0 -2 0.5 -3.5t1.5 -3.5v-1h-125q27 11 44 35.5t17 55.5q0 40 -29.5 69.5t-70.5 29.5q-9 0 -17.5 -1.5t-15.5 -4.5q-5 11 -9.5 21.5t-7.5 19.5q5 0 10 -0.5t10 -0.5h-2h-2q-5 0 -8 -3t-3 -7q0 -5 3 -8
t8 -3q16 0 24 7t11 13h5.5h4.5q9 0 16 2.5t11 7.5q6 6 6.5 12.5t0.5 8.5v0.5v0.5v0.5t-1 1.5l-0.5 0.5t-0.5 1.5l-0.5 0.5t-0.5 1.5l-0.5 0.5l-0.5 0.5l-0.5 0.5t-1.5 0.5h-0.5t-1.5 1h-0.5h-0.5l-98 10q-2 8 -4.5 20.5t-4.5 23.5q4 -4 7 -5t6 -1h1h1q7 0 12.5 4t8.5 6
q2 2 9 10.5t9 12.5q2 3 12.5 22t-1.5 35q-20 28 -69.5 30.5t-57.5 2.5q-3 0 -5.5 -2.5t-3.5 -5.5t0.5 -6.5t3.5 -5.5l48 -29q0 -1 -0.5 -2.5t-1.5 -1.5q-2 -1 -6.5 -1h-6.5v0v0q-10 6 -24 8.5t-32 2.5h-4q-20 0 -49.5 -4.5t-60.5 -35.5q-10 -10 -14.5 -21.5t-4.5 -23.5
q1 -27 21.5 -51.5t41.5 -41.5v-2v-1v-1l-19 -29q-11 5 -23 8.5t-25 3.5q-40 0 -69.5 -29t-29.5 -70q0 -31 17 -55.5t44 -35.5h-99q-4 0 -7 -3t-3 -8q0 -4 3 -7t7 -3h1004q4 0 7 3t3 7q0 5 -3 5.5t-7 0.5v0zM767 289q1 0 1 -0.5t1 -0.5q-1 0 -1 0.5t-1 0.5v0v0zM798 275
q-3 2 -5.5 4t-6.5 3q4 -1 7.5 -1.5t7.5 -1.5l-2 -2t-1 -2zM932 138l13 -6h-0.5h-0.5h-4h-2h-1l-4 1q-1 0 -2.5 0.5t-2.5 0.5h-0.5h-0.5l-3 1q-2 0 -6 1l-4 1l-19 5l-2 1q-1 0 -1 0.5t-1 0.5q1 3 1.5 5.5t2.5 4.5q4 -3 9 -4.5t11 0.5q1 0 2 0.5t2 0.5l10 -10q1 -1 1 -2t2 -1z
M938 280q-12 -37 -19.5 -69t-10.5 -42v0l-1 1l-3 3q1 13 2.5 37t1.5 39q0 6 1 8t1 3h0.5h0.5h2q4 -1 7.5 1t5.5 6q1 4 -1 7.5t-5 4.5l-1.5 0.5t-4.5 0.5l-81 15l-8 2t-8 1q1 2 2.5 3t2.5 3q9 7 21 13.5t22 8.5q11 -4 26.5 -11t35.5 -20q8 -6 10 -9.5t1 -5.5zM804 417
q-1 9 -3 19.5t-4 19.5q5 1 11 3.5t10 8.5q3 5 4.5 11.5t-0.5 14.5q4 -8 10.5 -14t18.5 -9q1 0 2.5 -0.5t2.5 -0.5q2 0 3.5 0.5t2.5 0.5q1 -4 1.5 -7.5t0.5 -8.5q0 -12 -8.5 -37.5l-12.5 -37.5l-0.5 -1t-0.5 -2q0 -3 -1 -7.5t-1 -5.5t-0.5 -1t-0.5 -1q-12 6 -22.5 8t-18.5 3
q0 1 0.5 1.5l0.5 0.5q1 0 4 11t1 31zM918 478q-2 -5 -3.5 -6l-1.5 -1v0h-1q-1 1 -2.5 5.5t-2.5 8.5q4 -2 7 -4t4 -3zM888 422q2 0 4 1t4 5q-3 -10 -5 -17.5t-3 -8.5q-1 -2 -1.5 -2.5t-1.5 -0.5q-3 1 -5 5.5t-2 6.5v2v2q0 3 1 5.5t2 4.5q1 -1 2.5 -2t2.5 -1h0.5h1.5zM831 570
q3 3 8 4.5t13 0.5q6 -1 9.5 -3.5t3.5 -3.5q6 -9 4 -23.5t-4 -18.5q0 -2 -1.5 -3l-1.5 -1l-0.5 0.5t-1.5 2.5q-1 3 -4.5 4.5t-7.5 0.5q-4 -2 -5.5 -5t-1.5 -6l4 -21l2 -4t3 -3l2.5 -1.5t4.5 -5.5v-2.5v-0.5h-0.5h-2.5q-12 3 -17.5 10.5t-7.5 13.5l2 2t2 1v4.5v4.5t1 6l2 6
q0 1 -0.5 2.5t-0.5 2.5q-3 5 -5.5 17t1.5 19zM749 490q-6 1 -11 1t-10 -4q-12 -10 -13.5 -37.5t-0.5 -37.5v-1.5v-1.5l7 -21q-2 -3 -3.5 -4l-1.5 -1q-1 0 -2.5 1.5t-1.5 2.5l1 21v1v1q-4 27 -3.5 51t5.5 28q4 1 8.5 1.5t8.5 1.5q9 2 16 3t16 -1q5 -1 10.5 0.5t11.5 3.5l12 4
t12 2q5 -10 5.5 -18t-3.5 -12q-3 -4 -7 -6t-8 -3q0 1 -0.5 2l-0.5 1q3 1 6 4.5t3 7.5q-1 4 -4.5 6.5t-6.5 2.5q-2 0 -4 -0.5t-4 -0.5q-1 1 -2.5 1t-3.5 -1l-1 -0.5l-1 -0.5q-11 0 -18 0.5t-11 2.5v0zM795 362q7 0 18 -1.5t24 -8.5v0v0q-8 0 -12 -2t-6 -2q-3 -3 -4 -7.5
t1 -7.5t6.5 -4t7.5 2l4.5 1t13.5 -1q-9 -4 -17.5 -9t-15.5 -11l-5.5 -5.5t-3.5 -4.5q-11 1 -18.5 3.5t-9.5 5.5q-3 4 3 19.5t14 32.5zM684 185l0.5 0.5l0.5 0.5q11 11 22.5 21t14.5 12q8 0 14.5 10.5t19.5 37.5q1 3 2.5 6t3.5 6q5 -1 12.5 -3.5t16.5 -9.5q-8 -9 -17.5 -19
t-16.5 -18l-5.5 -5.5l-5.5 -5.5q-6 -7 -9.5 -10t-7.5 -4q-8 -1 -30.5 -18t-42.5 -33q1 2 1.5 4.5t-1.5 5.5l28 22v0zM622 117v0.5v0.5v3v6.5v4.5l1 19v2v1.5t1 1.5q3 0 5.5 -0.5t4.5 -0.5q-2 -4 -2.5 -9.5t2.5 -11.5q1 -1 1 -2t1 -1l-8 -13q-1 0 -1 -1v-2l-3 -14v0.5v0.5
l-1 3v2v1v4q-1 1 -1 2.5v2.5zM444 260q33 0 56 -23.5t23 -55.5q0 -33 -23 -56t-56 -23q-32 0 -55 23t-23 56q0 20 9 37.5t25 27.5q10 -22 19.5 -42t16.5 -32q2 -3 4 -4.5t5 -1.5q2 0 3.5 0.5t2.5 0.5q3 3 4 7t-1 8q-7 11 -16.5 31t-18.5 41q6 3 12.5 4.5t12.5 1.5v0z
M379 254l12 13q0 -1 0.5 -1.5l0.5 -0.5q-3 -3 -6.5 -5t-6.5 -6zM200 186q0 1 1 1t2 1l59 85q1 1 1.5 2t0.5 3q0 5 -3 8.5t-14 11.5q-3 3 -7 6t-9 7l22 19l20 -26t16 -22v0l1 -1t0 -4.5t-6 -8.5l-74 -76l-7 -9q-3 -3 -3 -6.5t3 -6.5l6 -8.5t13 -17.5v0v-1l-33 25q2 5 5 9t6 9
v0zM314 391l17 -39q-9 7 -24.5 15t-34.5 18zM304 296q-1 2 -3 5l-4 6l4 4q2 1 2.5 3.5t0.5 4.5t-1.5 4t-3.5 3l-30 20l13 11q13 -7 23.5 -13t11.5 -9q4 -3 4 -11.5t-17 -27.5v0zM342 323q1 -2 3.5 -4t4.5 -2h0.5h1.5q-3 0 -6 -0.5t-6 -0.5q1 2 1 4.5v3.5zM272 362l-10 -9
q-4 6 -8.5 11.5t-7.5 9.5q7 -3 13.5 -6t12.5 -6zM223 177l4 4v-0.5v-0.5v-4t-1 -4q0 1 -1 2.5t-2 2.5zM263 170q5 0 7.5 -3t2.5 -7t-3 -7t-7 -3t-7 3t-3 7t3 7t7 3zM278 187l-6 2t-6 1l-6 26l38 38q5 5 7.5 9.5t3.5 8.5l11.5 11.5t9.5 10.5q13 1 26.5 2.5t22.5 1.5l2 -6
t3 -6l-106 -99v0zM463 333q-2 0 -4 -0.5t-3 -0.5q-16 0 -49.5 2.5t-47.5 2.5l-28 69q-2 3 -5 5t-7 1l-10 -1l-2 2t-1 2q-3 5 -4 12t2 13q3 5 9.5 7.5t15.5 3.5v0h1q0 -1 1 -1.5t3 -0.5q5 -4 8.5 -10t6.5 -13v0v0q1 -2 1.5 -4t1.5 -5q3 -11 8.5 -37t5.5 -27q0 -3 2.5 -5.5
t6.5 -2.5l88 -12v0zM396 424q-3 -3 -4 -3.5t-2 -0.5l-0.5 0.5l-0.5 0.5q-4 6 -10.5 9t-10.5 5q-2 4 -3.5 7.5t-4.5 6.5q4 2 7 4t6 6q1 2 2 4.5t3 6.5l37 -23l-1.5 -1.5l-0.5 -0.5q-6 -7 -11 -13.5t-6 -7.5v0zM350 500q23 -1 44 -7t29 -16q2 -3 0.5 -9.5t-4.5 -12.5l-40 25
q-1 1 -2 2.5t-2 2.5zM171 395q-1 8 2.5 15.5t10.5 13.5q27 27 52 31t44 4h4q7 0 13.5 -0.5t11.5 -1.5q-5 -2 -8.5 -5.5t-4.5 -5.5q-5 -8 -4 -17.5t6 -18.5v0v0l-61 -9h-0.5h-0.5h-1.5t-1.5 -1h-0.5h-0.5l-5 -5t-6 -10q-1 -4 0 -8t5 -9q3 -2 8.5 -9.5t12.5 -16.5l-24 -21
q-17 14 -34 34t-18 40v0zM225 260l0.5 -0.5l0.5 -0.5l-6 -10q-1 2 -3 4l-4 4l10 14zM70 181q0 32 23 55.5t55 23.5q10 0 19 -2.5t16 -6.5l-46 -68q-2 -4 -1.5 -8t4.5 -7q2 0 3.5 -1t2.5 -1q3 0 5 1.5t4 2.5l46 69q1 -1 2.5 -3t3.5 -3l0.5 -0.5l0.5 -0.5l-20 -28l-1 -1l-2 -2
q-15 -21 -17 -29.5t3 -13.5l0.5 -0.5l0.5 -0.5l37 -28q-12 -14 -27.5 -21t-33.5 -7q-32 1 -55 24t-23 56v0zM225 117h1.5h0.5q1 0 2 0.5l1 0.5q1 0 6.5 3.5t8.5 11.5v0.5v1.5q4 -3 8.5 -4.5t8.5 -1.5q13 0 22 9t9 21q0 3 -1 6t-2 7l83 77q-13 -13 -21 -31t-8 -38
q0 -31 17 -55.5t43 -35.5h-217q11 4 21 11.5t17 16.5v0z" />
    <glyph glyph-name="uniE92E" unicode="&#xe92e;" horiz-adv-x="805" 
d="M229 695l37 2l39 -606l-37 -2zM768 810h-194v48q0 2 -3 17.5t-22 29.5q-20 14 -34 16l-14 2h-194q-3 0 -17 -2t-30 -16q-20 -16 -25 -30.5t-5 -16.5v-48h-193v-37h40l36 -735q0 -2 3 -16.5t19 -30.5q14 -11 31.5 -14.5t20.5 -3.5h431q3 0 18.5 4t29.5 18q16 13 19 28.5
t3 18.5l36 735h44v33v0zM267 854l2 7t13 15q8 8 15 9.5l7 1.5h193l7 -1.5t15 -9.5q9 -8 12 -15l3 -7v-48h-267v48v0zM651 38l-1.5 -6.5t-9.5 -15.5q-5 -2 -12 -4.5t-10 -2.5h-428q-3 0 -11.5 3t-13.5 8q-9 8 -10 15l-1 7l-37 731h574zM497 88l39 606l36 -2l-38 -606z
M384 697h37v-611h-37v611v0z" />
    <glyph glyph-name="uniE92F" unicode="&#xe92f;" 
d="M1013 58h-113q-4 10 -17.5 17.5t-31.5 16.5q-5 2 -11.5 5.5t-10.5 5.5q2 12 9 51t12 69q3 7 11.5 38t-4.5 52q-4 5 -12 10.5t-23 5.5h-58.5h-35.5q5 20 7.5 43t-0.5 45q3 6 6 22.5t-4 36.5q-6 16 -19 29t-35 22q-2 1 -5.5 4t-6.5 7q7 -1 12.5 1t8.5 7t10.5 37.5
t-5.5 64.5q-7 19 -21.5 30.5t-35.5 17.5v0v0l-42 144l3 75q0 2 -1 4.5t-3 3.5q-2 2 -4.5 2.5t-4.5 -0.5t-31 -14.5t-31 -50.5q0 -29 18.5 -92t27.5 -89q-3 -5 -6 -11t-4 -12h-0.5h-0.5q-3 -2 -8 -2t-11 2q-6 1 -15 -3.5t-14 -8.5q-8 -7 -12 -15t-3 -17q0 -19 19.5 -49.5
t25.5 -37.5q1 -3 3.5 -3.5t4.5 -0.5h1.5h1.5q3 0 5 3t2 7v90q2 -8 4 -15.5t4 -12.5q-3 -10 -2 -24.5t1 -23.5q-3 -25 6.5 -54t16.5 -38q2 -4 3.5 -22.5t2.5 -35.5v-1.5v-0.5q0 -1 2 -38t-28 -48q-29 -11 -34 -30.5t-5 -31.5v-2v-2q-6 -1 -18.5 -7.5t-33.5 -16.5
q-15 -9 -34 -18t-24 -10q-5 0 -12.5 0.5t-16.5 1.5q-13 2 -28.5 3t-31.5 1q-23 0 -66.5 -13.5t-60.5 -19.5q-6 5 -14 9t-19 2q-7 -2 -14.5 -8.5t-14.5 -16.5q-6 -9 -14 -33t-1 -58h-119q-4 0 -7 -3t-3 -7q0 -5 3 -8t7 -3h1004q4 0 7 3t3 8q0 4 -3.5 7.5t-7.5 3.5v0zM540 564
q-10 14 -16.5 27.5t-6.5 20.5q0 9 9 15.5t13 6.5h0.5h0.5v-0.5v-0.5v-69zM218 60q-2 5 -10 12t-18 14q7 6 19 14.5t29 8.5q14 0 48 -2q34 -1 69 -3t61 -4l27 -1h1.5h0.5q4 0 33 5t68 18t78 36q40 23 63 61q12 0 36 1.5t45 8.5q-1 -3 -1.5 -5.5t-0.5 -5.5q0 -10 -1 -57
t-1 -58q-2 -7 -5.5 -20t-0.5 -24h-540v0v1v0zM843 73q4 -2 11.5 -5.5t13.5 -7.5q-23 0 -54 0.5t-37 1.5q-1 4 1 14.5t5 20.5q0 1 0.5 1.5t0.5 1.5q0 2 1 30t1 54l38 5q-5 -27 -10 -56t-5 -33q0 -8 8.5 -13t25.5 -14v0zM823 309q9 0 12.5 -2.5t5.5 -4.5q7 -12 2 -35t-12 -37
q0 -1 -0.5 -1t-0.5 -1q0 -5 -1.5 -12t-3.5 -16l-40 -6v14v9q0 5 4.5 14t8.5 14q2 3 1.5 7.5t-3.5 7.5q-3 2 -7.5 2t-7.5 -3q-7 -10 -33.5 -14.5t-51.5 -5.5q3 5 4.5 10t2.5 11q2 3 7.5 16.5t11.5 33.5q6 -1 33.5 -1h67.5zM719 470q6 -17 2 -31.5l-4 -14.5q-1 -1 -1 -2.5
v-3.5q5 -46 -8.5 -89.5t-19.5 -56.5l-80 39q15 23 13.5 51t-3.5 34q0 10 -0.5 18t-1.5 15q9 1 25.5 8t28.5 23q7 10 9.5 22t1.5 25q15 -7 24 -16.5t14 -20.5v0zM589 543q3 20 3 32.5t-1 17.5q4 13 4.5 38t0.5 42v2t-1 1q-11 30 -30 94t-18 90q1 17 12 26.5t21 15.5l-2 -61
v-1.5v-1.5l48 -165q-1 -10 -3 -57.5t-2 -56.5q0 -11 2.5 -26l2.5 -15q0 -4 3 -6.5t7 -2.5h1h1q4 1 6.5 4.5t1.5 8.5t-3 17t-2 20q0 10 2.5 62.5l2.5 52.5v0.5v0.5q11 -4 18.5 -11t12.5 -17q11 -24 6 -51.5t-7 -33.5h-6t-11 3q-2 1 -4 1t-5 -1q-2 -1 -3.5 -3t-1.5 -4
q-2 -15 6.5 -26t15.5 -15q2 -15 0 -27t-9 -22q-10 -13 -23.5 -19t-22.5 -7q-2 17 -4.5 21.5t-3.5 6.5q-2 1 -10.5 26t-4.5 47zM422 168q8 0 23.5 7.5t44.5 22.5q14 7 29.5 15t19.5 9q11 0 13 9t2 14q0 12 3.5 23.5t23.5 18.5q7 3 12.5 7t9.5 9l83 -40q-12 -43 -49 -71
q-37 -27 -78 -43t-74 -23q-34 -6 -40 -7q-6 0 -36 2t-66 4l1 51q12 -1 24.5 -2t23.5 -2q9 -2 16.5 -3t13.5 -1v0zM162 138q4 7 9 11t6 4q8 2 12.5 -2.5l4.5 -4.5q2 -3 5 -4t7 0q20 7 63 20.5t63 13.5l-1 -51q-29 2 -55.5 3.5t-38.5 1.5q-33 0 -51.5 -20t-19.5 -21
q-2 -4 -1.5 -7.5t4.5 -6.5q5 -4 11 -8t10 -8h-40q-7 31 0.5 52t11.5 27v0z" />
    <glyph glyph-name="uniE930" unicode="&#xe930;" 
d="M1014 79h-210q43 17 71 56t28 88q0 63 -45 108t-108 45q-15 0 -29.5 -3t-27.5 -8l-14 36t-12 31v0v1t-1 2.5t-1 2.5q-1 1 -2 3t-1 4q16 -1 33 -2t32 -2q-4 -6 -11.5 -8.5t-20.5 -2.5q-4 0 -7 -3t-3 -8q0 -4 3 -7t7 -3q27 0 38.5 11t15.5 20h10h9q13 0 23 3.5t17 11.5
q8 9 9 18t1 10v0.5v0.5v1l-1 1v1h-1q0 1 -0.5 1t-0.5 1v0l-1 1t-1.5 1t-1.5 1v0h-1t-1 0.5t-1 0.5l-162 17l-9 45t-10 48l6 -4t5 -5q5 -5 10 -8.5t10 -3.5h1.5h0.5q10 0 17.5 5.5t11.5 8.5q4 4 15.5 17.5t14.5 17.5t18.5 33t-1.5 52q-15 22 -47 32q-33 11 -66 15t-58 4
q-26 -1 -28 -1q-3 0 -6 -2t-4 -6q0 -3 1 -6t3 -5l83 -51q-2 -4 -3.5 -7.5t-3.5 -6.5q-2 -2 -11.5 -2.5t-13.5 -1.5h-1.5h-0.5q-16 10 -38 14t-53 4h-7q-32 0 -77.5 -7.5t-94.5 -56.5q-15 -14 -22 -31.5t-6 -35.5q2 -42 35.5 -81.5t66.5 -67.5q0 -1 -0.5 -2.5t0.5 -3.5l1 -4
l-35 -50q-17 10 -37 15t-40 5q-63 0 -108 -45t-45 -108q0 -49 27.5 -88.5t71.5 -55.5h-209q-4 0 -7 -2.5t-3 -7.5q0 -4 3 -7t7 -3h1004q4 0 7 3t3 7q0 5 -3 7.5t-7 2.5v0zM573 746q38 -1 84 -9.5t63 -32.5q6 -8 2.5 -21t-9.5 -24l-78 48v0l-1 1zM627 674q1 3 3.5 8t7.5 11v0
v1l70 -43l-3 -4.5t-3 -2.5q-6 -9 -15 -19.5t-12 -13.5q-2 -2 -6 -5.5t-7 -3.5q-2 0 -3.5 1t-3.5 4q-7 8 -17.5 13.5t-16.5 6.5q-4 9 -8 17.5t-10 15.5q8 2 14.5 4.5t9.5 9.5v0zM574 659q10 -7 17 -17.5t11 -23.5v-0.5v-0.5q1 -3 2 -7t2 -7q5 -19 13.5 -61.5t8.5 -43.5
q0 -3 2.5 -5.5t6.5 -2.5l159 -16q-1 -1 -2 -2.5l-1 -1.5q-4 -4 -10.5 -6.5t-14.5 -2.5q-27 0 -84 3.5t-76 5.5l-47 114q-1 3 -4 5t-7 1l-14 -2q-4 2 -6.5 4.5t-5.5 6.5q-5 8 -7 20t4 23q6 10 19 14.5t30 4.5q1 -1 2.5 -1t1.5 -1zM424 252q0 1 -0.5 2.5t-1.5 2.5l7 7l9 -39
q-4 -3 -7 -6.5t-5 -8.5q0 4 0.5 6.5t0.5 5.5q0 8 -1 16t-2 14zM377 239l-12 -14q-3 -3 -3 -6.5t3 -6.5l10 -13.5t21 -28.5q4 -5 6 -9.5t1 -6.5q0 -1 -0.5 -1.5l-1.5 -1.5l-69 54q2 5 7.5 14t10.5 17l3 1.5t1 1.5l97 137q0 2 1 3.5l1 1.5q0 6 -5 11t-21 17q-6 5 -13 10.5
t-15 12.5l45 40q16 -21 32 -43t28 -37l0.5 -0.5l0.5 -0.5q1 -1 2 -8.5t-12 -22.5zM404 193q-5 7 -10 13.5t-8 11.5l6 7l14 13q0 -4 0.5 -8t0.5 -8q0 -5 -1 -13t-3 -13l0.5 -0.5t0.5 -2.5zM412 396q0 -1 1 -1.5t2 -0.5q4 -3 8 -6.5t7 -6.5l-10 -13zM570 487q-6 11 -45 31.5
t-73 37.5l93 13l47 -114q1 -2 3.5 -4t4.5 -2t12.5 -1t26.5 -2v0v0q1 -2 1 -3.5t1 -2.5q-12 -2 -30.5 -3.5t-37.5 -2.5q7 17 5.5 29.5t-8.5 23.5zM512 454l-51 33l29 27q25 -13 42.5 -23t19.5 -14q5 -9 5 -25t-34 -51q-1 1 -1.5 2l-1.5 3q-1 1 -5.5 7t-10.5 15l10 10
q2 1 2.5 3.5t0.5 4.5t-1.5 4.5t-3.5 3.5v0zM481 519l-26 -24q-13 16 -22.5 29t-13.5 17q-1 1 -1.5 2.5t-0.5 2.5t0.5 2l0.5 1q16 -7 32 -15t31 -15v0zM482 227q-4 2 -9.5 4t-10.5 2h-2.5h-1.5l-12 49l64 66q7 7 11 14t5 13h0.5h0.5q12 11 20 20.5t14 17.5q23 2 49 4.5
t38 3.5q2 -6 5 -13l6 -14l-177 -167v0zM482 192q0 -8 -6 -14t-14 -6q-9 0 -15 6t-6 14t6 14t15 6q8 0 14 -6t6 -14zM303 567q-1 14 4.5 27t18.5 25q44 44 85.5 50.5t71.5 6.5h7q20 0 34 -1.5t26 -4.5q-17 -3 -25.5 -10t-12.5 -12q-8 -14 -6 -29t9 -26l3.5 -3.5t2.5 -3.5
l-106 -15h-0.5h-0.5h-1.5t-0.5 -1h-0.5h-0.5q-1 -1 -7 -6t-8 -15q0 -3 1 -9t6 -12q4 -4 13.5 -16.5t22.5 -29.5l-47 -42q-30 25 -58.5 59t-30.5 68v0zM394 383l9 -30q0 -1 1 -2.5t2 -1.5l-18 -25q0 1 -0.5 1.5l-1.5 1.5l-9.5 9.5t-9.5 8.5zM140 223q0 55 39 94t94 39
q18 0 34.5 -4.5t31.5 -13.5l-79 -115q-2 -4 -1.5 -8t4.5 -7q2 0 3.5 -1t2.5 -1q3 0 5 1.5t4 2.5l78 116q4 -3 8.5 -6.5t7.5 -7.5q1 -2 3 -2.5t4 -0.5l-37 -52l-2 -2l-2 -2q-27 -37 -27.5 -47t2.5 -14l0.5 -0.5l0.5 -0.5l66 -51l-1.5 -1.5l-0.5 -0.5q-19 -24 -46.5 -36.5
t-57.5 -12.5q-56 0 -95 39.5t-39 94.5v0zM328 79q19 7 35.5 19t29.5 28q1 1 1 2t1 2q2 -1 3.5 -2l1.5 -1q1 0 2 0.5t1 1.5q1 0 9 4t11 15q2 8 -0.5 17t-9.5 18q-1 1 -2 1.5t-1 2.5l1 -0.5t2 -0.5h0.5h1.5q2 0 3.5 0.5t3.5 2.5q1 -16 13 -27t28 -11q17 0 29 12t12 29
q0 5 -1.5 10.5t-4.5 9.5l170 160q1 -4 2.5 -8t3.5 -8q-36 -20 -57.5 -55.5t-21.5 -78.5q0 -49 27.5 -88t71.5 -56h-366v1zM615 223q0 37 18.5 67.5t48.5 46.5q15 -36 31.5 -71t27.5 -55q2 -2 4.5 -3.5t5.5 -1.5q1 0 2.5 0.5t2.5 0.5q4 3 4.5 7t-1.5 8q-12 19 -27.5 53.5
t-32.5 71.5q12 4 24 6.5t25 2.5q55 0 94 -39t39 -94q0 -56 -39 -94.5t-94 -38.5q-56 0 -94.5 38.5t-38.5 94.5z" />
    <glyph glyph-name="uniE931" unicode="&#xe931;" 
d="M348 276q-4 1 -9.5 1.5t-10.5 0.5q-3 0 -4.5 -1.5t-1.5 -2.5q0 -2 1 -3.5t3 -2.5q5 -1 10 -1.5t10 -0.5v0h1q2 0 3.5 1t1.5 3q1 2 -0.5 4t-3.5 2zM429 265q-5 0 -10 0.5t-10 1.5q-3 1 -4.5 -1t-2.5 -3q0 -2 1.5 -4t3.5 -2l10 -2t10 -1v0h1q2 0 3.5 1.5t1.5 4.5
q1 2 -0.5 3.5t-3.5 1.5zM389 270l-20 3q-3 0 -4.5 -1.5l-2.5 -2.5q0 -3 1 -4.5t4 -1.5l20 -3v0h1q2 0 3.5 1t1.5 3q1 2 -0.5 4t-3.5 2zM470 264h-10h-10q-3 0 -4.5 -1.5t-1.5 -3.5q0 -3 1.5 -4.5t4.5 -1.5h4.5h5.5h5.5h4.5t3.5 1.5t1.5 4.5q0 2 -1.5 3.5t-3.5 1.5zM151 236
q-4 -3 -8 -6.5t-8 -7.5q-1 -2 -1 -4t1 -3t1.5 -1h1.5t2.5 0.5t1.5 1.5q3 3 7 6.5t8 6.5q1 1 1 3v4q-2 1 -4 1.5t-3 -1.5v0zM307 280q-2 0 -5 0.5t-5 0.5h-5h-5q-3 0 -4 -1.5t-1 -3.5t1 -3.5t4 -1.5h4.5h4.5h5t5 -1v0q2 0 3.5 1.5t1.5 3.5q1 2 0 3.5t-4 1.5zM224 275
q-5 -2 -10 -3.5t-9 -2.5q-3 -1 -3.5 -3t0.5 -3q0 -2 1.5 -2.5t3.5 -0.5h1h1q5 1 9.5 2.5t8.5 3.5q3 0 3.5 2t0.5 4q0 1 -2 2t-5 1zM508 271q-5 -2 -9.5 -3.5t-10.5 -1.5q-2 0 -3 -2t-1 -4t2 -3.5t3 -1.5h1q6 1 11 2.5t10 3.5q2 0 3 2t0 4q0 2 -2 3.5t-4 0.5zM266 281
q-5 0 -10.5 -0.5t-9.5 -1.5q-3 0 -4 -2t0 -4q0 -2 1.5 -3t3.5 -1h1q4 1 9.5 1.5t9.5 0.5q3 0 4 1.5t1 3.5t-2 4t-4 1zM646 419q-1 1 -3 0.5t-4 -2.5l-10 -17q-1 -2 -0.5 -4t2.5 -3q1 0 1.5 -0.5l0.5 -0.5q1 0 2 0.5t2 2.5l10 17q2 2 1.5 4t-2.5 3zM105 173q-1 0 -3 -0.5
t-4 -2.5q-4 -8 -6 -13.5l-2 -5.5q-1 -2 0.5 -3.5l2.5 -2.5h1h1q2 0 3.5 0.5t1.5 2.5l2 5t7 13q0 2 -0.5 4t-3.5 3v0zM594 324q3 4 6 8.5t6 7.5q2 2 1.5 4t-2.5 4q-1 1 -3 0.5t-4 -1.5q-3 -5 -6 -9l-6 -8q-2 -1 -2 -3t3 -4q1 -1 1.5 -1h1.5t2 0.5t2 1.5zM651 428q1 0 1.5 -1
l0.5 -1q2 0 3 1t1 3l11 17q0 2 -0.5 4t-1.5 3q-2 1 -4 0.5t-4 -2.5l-10 -17q-1 -2 0 -4t3 -3zM626 383q-2 1 -4 1t-4 -3q-2 -4 -4.5 -8.5t-5.5 -8.5q-1 -2 -0.5 -4t2.5 -3q1 -1 2 -1h1q2 0 3 0.5t1 1.5q3 4 5.5 8.5t5.5 8.5v5t-2 3zM580 316q-2 1 -4 1t-4 -1
q-3 -4 -6.5 -7.5t-7.5 -6.5q-1 -2 -1 -4t1 -4q1 0 2 -1t2 -1t1.5 0.5t1.5 0.5q4 3 8 7t7 9q1 1 1 3t-1 4zM185 260q-4 -3 -8.5 -6t-9.5 -6q-2 -1 -2.5 -3t1.5 -4q1 -1 2 -1.5t2 -0.5h1.5t1.5 1q4 3 8.5 5.5t8.5 4.5q2 1 2.5 3t0.5 5q-1 1 -3.5 1.5t-4.5 0.5zM543 288
q-4 -3 -8.5 -5.5t-8.5 -4.5q-1 -1 -1.5 -3t-0.5 -4q1 -2 2.5 -2.5l1.5 -0.5h1.5t0.5 1q5 2 9.5 5t9.5 6q1 2 1.5 4t-0.5 3q-1 2 -3 2.5t-4 -1.5zM122 205l-6 -8t-6 -9q-1 -2 -1 -4t3 -3q0 -1 1 -1h2t2 0.5t2 1.5q3 4 5.5 8t5.5 8q2 2 1.5 4t-2.5 3q-2 3 -4 3t-3 -3zM410 387
v71q0 5 -3 7.5t-8 2.5q-4 0 -7 -2.5t-3 -7.5v-71q0 -5 3 -8t7 -3q5 0 8 3t3 8zM799 315q-5 0 -8 -3t-3 -7v-72q0 -5 3 -7.5t8 -2.5q4 0 7 2.5t3 7.5v72q0 4 -3 7t-7 3v0zM645 120q-4 0 -7 -2.5t-3 -7.5v-41q0 -4 3 -7t7 -3q5 0 7.5 3t2.5 7v41q0 5 -2.5 7.5t-7.5 2.5z
M654 300q0 3 -3 5t-7 2v0q-3 0 -6 -2t-4 -5l-57 -207q-1 -3 -0.5 -5t2.5 -5q1 -1 3 -2.5t5 -1.5h27q5 0 8 3t3 8q0 4 -3 7t-8 3h-13l44 159l44 -159h-15q-5 0 -7.5 -3t-2.5 -7q0 -5 2.5 -8t7.5 -3h28q3 0 5 1t4 3q1 2 1.5 4.5t0.5 5.5zM205 305v41q0 4 -3 7t-7 3q-5 0 -8 -3
t-3 -7v-41q0 -5 3 -8t8 -3q4 0 7 3t3 8zM1012 544q-33 0 -66 -7.5t-70 -17.5l-36 -10l-32 114q-1 3 -3.5 5t-6.5 2v0q-3 0 -6 -2t-5 -5l-36 -133q-31 -5 -61.5 -7.5t-60.5 -2.5q-33 0 -68.5 1.5t-75.5 5.5l-81 290q0 3 -3 5t-7 2v0q-3 0 -5.5 -2t-4.5 -5l-74 -268l-54 8
q-15 1 -27 2.5t-22 2.5l-2 13q-1 3 -4 5t-6 2v0q-4 0 -6.5 -2t-4.5 -5l-4 -13q-54 -2 -98.5 -17.5t-61.5 -22.5l-3 -1.5t-2 -0.5q-3 -2 -5 -6t-1 -8q1 -3 3.5 -5t5.5 -2q1 0 2 0.5t2 0.5l2 1t5 2q15 7 55.5 21.5t90.5 16.5l-48 -173q-1 -2 -0.5 -4.5t2.5 -4.5t4 -3t4 -1h27
q4 0 7 3t3 7q0 5 -3 7.5t-7 2.5h-13l44 159l45 -159h-15q-4 0 -7 -2.5t-3 -7.5q0 -4 3 -7t7 -3h29q2 0 4.5 1t3.5 3q2 2 2.5 4.5t-0.5 4.5l-48 173q9 -1 19 -1.5t22 -2.5l51 -6l-16 -59q-1 -3 -0.5 -5t2.5 -5q1 -1 3.5 -2.5t4.5 -1.5h56q5 0 8 3t3 8q0 4 -3 7t-8 3h-45
l82 298l84 -299h-39q-4 0 -7 -3t-3 -7q0 -5 3 -8t7 -3h53q2 0 4 1t4 3q1 2 2 4.5t0 5.5l-10 35q37 -3 71 -5t66 -2q29 0 57.5 2.5t57.5 6.5l-53 -192q-1 -2 0 -4.5t2 -4.5q2 -2 4 -3t4 -1h56q4 0 7 2.5t3 7.5t-3 7.5t-7 2.5h-42l82 298l84 -297h-42q-5 0 -8 -2.5t-3 -7.5
t3 -7.5t8 -2.5h56q2 0 4.5 0.5t3.5 3.5q2 1 2 4v5l-59 213l36 9q36 10 68 17.5t63 7.5q4 0 7 2.5t3 7.5t-4 7.5t-8 2.5v0z" />
    </font>
</defs>
</svg>
